<svg xmlns="http://www.w3.org/2000/svg" xmlns:xlink="http://www.w3.org/1999/xlink" width="500" zoomAndPan="magnify" viewBox="0 0 375 374.999991" height="500" preserveAspectRatio="xMidYMid meet" version="1.0"><defs><clipPath id="f24e7d3100"><path d="M 129 255 L 287.289062 255 L 287.289062 375 L 129 375 Z M 129 255 " clip-rule="nonzero"/></clipPath></defs><rect x="-37.5" width="450" fill="#ffffff" y="-37.499999" height="449.999989" fill-opacity="1"/><path fill="#000000" d="M 281.910156 151.378906 L 280.839844 150.84375 L 279.773438 150.421875 C 280.429688 148.777344 281.414062 138.101562 279.332031 136.285156 C 278.25 135.335938 276.460938 134.269531 274.324219 133.003906 C 271.425781 131.28125 267.90625 129.1875 264.429688 126.359375 C 263.363281 125.496094 262.304688 124.558594 261.277344 123.59375 C 261.34375 126.300781 260.878906 129.023438 259.878906 131.328125 C 258.855469 133.695312 257.285156 135.605469 254.976562 137.554688 C 252.761719 139.421875 249.839844 141.332031 246.019531 143.765625 C 242.222656 146.179688 237.523438 149.109375 232.648438 151.816406 C 227.734375 154.539062 222.625 157.046875 218.042969 158.582031 C 213.398438 160.140625 209.289062 160.710938 205.640625 160.691406 C 201.972656 160.671875 198.789062 160.058594 196 159.261719 C 193.210938 158.460938 190.765625 157.445312 189.289062 156.433594 C 188.613281 155.972656 188.105469 155.480469 187.808594 154.972656 C 187.367188 154.234375 187.332031 153.488281 187.773438 152.765625 C 187.980469 152.421875 188.304688 152.113281 188.746094 151.847656 C 190.566406 150.753906 195.179688 150.179688 199.753906 149.613281 C 201.1875 149.433594 202.621094 149.253906 203.933594 149.066406 C 203.789062 148.898438 203.65625 148.722656 203.535156 148.535156 C 202.894531 147.539062 202.621094 146.300781 202.664062 145.097656 C 202.691406 144.363281 202.835938 143.628906 203.136719 142.941406 L 202.878906 143.011719 C 199.605469 143.972656 196.851562 146.257812 194.769531 147.988281 L 194.023438 148.613281 C 192.839844 149.578125 191.875 150.285156 191.109375 150.664062 C 189.761719 151.328125 188.796875 151.195312 188.234375 150.058594 C 187.882812 149.359375 187.90625 148.105469 188.355469 146.742188 C 188.691406 145.714844 189.277344 144.550781 190.113281 143.472656 C 191.007812 142.3125 192.199219 141.253906 193.738281 140.3125 C 195.234375 139.398438 197.074219 138.59375 199.300781 137.921875 C 201.683594 137.203125 204.535156 136.628906 207.46875 136.417969 C 209.972656 136.238281 212.550781 136.328125 214.964844 136.8125 C 217.679688 137.363281 220.109375 138.402344 222.359375 139.363281 C 224.347656 140.210938 226.199219 141 227.851562 141.273438 C 229.445312 141.53125 230.929688 141.324219 232.167969 140.769531 C 233.417969 140.203125 234.421875 139.273438 235.019531 138.105469 L 235.21875 137.667969 C 235.648438 136.621094 235.773438 135.417969 235.449219 134.324219 C 235.136719 133.253906 234.375 132.257812 233.035156 131.570312 L 232.503906 131.332031 C 230.628906 130.5625 227.84375 130.296875 224.328125 130.503906 C 220.617188 130.71875 216.140625 131.457031 211.074219 132.671875 C 207.53125 133.519531 203.589844 134.640625 199.660156 135.753906 C 192.574219 137.761719 185.519531 139.761719 180.207031 140.328125 C 176.707031 140.699219 173.921875 140.441406 172.234375 139.71875 C 171.359375 139.347656 170.722656 138.835938 170.359375 138.207031 C 169.941406 137.46875 169.890625 136.65625 170.25 135.777344 C 170.652344 134.796875 171.632812 133.730469 173.261719 132.648438 C 176.273438 130.640625 181.820312 128.320312 188.199219 126.332031 C 194.164062 124.472656 200.90625 122.882812 207.019531 122.097656 C 212.625 121.371094 217.671875 121.324219 222.128906 121.28125 C 227.523438 121.230469 232.035156 121.1875 235.457031 119.941406 C 238.429688 118.855469 240.671875 116.808594 242.324219 114.082031 C 244.03125 111.257812 245.125 107.707031 245.753906 103.722656 C 246.449219 99.324219 246.578125 94.410156 245.613281 89.679688 C 244.824219 85.796875 243.289062 82.03125 240.71875 78.769531 C 237.449219 74.621094 232.421875 71.203125 227.65625 67.960938 C 223.949219 65.4375 220.390625 63.019531 217.800781 60.367188 C 216.640625 59.179688 215.675781 57.945312 214.933594 56.6875 C 213.621094 54.457031 213.015625 52.160156 213.246094 49.910156 C 213.480469 47.632812 214.550781 45.441406 216.585938 43.457031 C 217.5625 42.503906 218.765625 41.59375 220.214844 40.742188 L 221.160156 40.210938 C 209.367188 38.03125 196.601562 36.265625 187.191406 38.230469 C 181.621094 39.390625 177.21875 41.867188 174.191406 44.851562 C 170.890625 48.105469 169.246094 51.933594 169.570312 55.242188 C 169.789062 57.464844 170.914062 59.484375 172.640625 61.15625 C 176.132812 62.710938 180.375 63.519531 184.585938 63.519531 C 190.734375 63.519531 196.847656 61.785156 200.246094 60.820312 C 201.121094 60.574219 201.824219 60.375 202.367188 60.253906 C 203.554688 59.992188 204.277344 60.183594 204.484375 61.121094 C 204.503906 61.222656 204.511719 61.28125 204.515625 61.386719 C 204.515625 62.003906 202.925781 63.433594 200.375 64.667969 C 198.175781 65.734375 195.144531 66.921875 191.839844 67.652344 C 189.9375 68.078125 187.9375 68.351562 185.953125 68.367188 C 181.3125 68.40625 176.761719 67.035156 173.324219 64.714844 C 172.597656 64.222656 171.921875 63.691406 171.300781 63.117188 C 170.914062 62.941406 170.542969 62.753906 170.175781 62.558594 C 166.394531 60.539062 163.582031 57.617188 162.664062 53.867188 C 161.710938 49.980469 162.839844 45.28125 165.625 40.503906 C 168.339844 35.847656 172.648438 31.066406 178.121094 26.878906 C 179.304688 25.972656 180.542969 25.09375 181.820312 24.246094 C 178.5625 24.367188 175.242188 24.5625 171.980469 24.882812 C 163.71875 25.683594 155.746094 27.246094 149.886719 30.292969 C 144.519531 33.082031 140.917969 37.136719 138.835938 41.632812 C 136.457031 46.765625 136.046875 52.480469 137.253906 57.539062 L 137.386719 58.070312 C 138.625 59.957031 139.992188 61.652344 141.433594 63.167969 C 145.15625 67.09375 149.332031 69.828125 152.929688 71.554688 C 156.394531 73.214844 159.363281 73.949219 161.367188 74.449219 C 163.613281 75.003906 164.945312 75.335938 165.097656 76.675781 C 165.128906 76.953125 165.089844 77.234375 164.984375 77.507812 C 164.746094 78.09375 164.125 78.714844 163.199219 79.183594 C 162.421875 79.574219 161.375 79.90625 160.117188 80.054688 C 158.160156 80.285156 155.636719 80.070312 152.769531 78.929688 C 149.125 77.480469 144.890625 74.496094 141.414062 70.417969 C 138.691406 67.230469 136.414062 63.355469 135.203125 59.019531 C 133.929688 57.03125 132.785156 54.851562 131.835938 52.464844 C 129.484375 46.542969 128.332031 39.363281 128.890625 32.402344 C 129.394531 26.144531 131.277344 20.039062 134.890625 15.132812 C 136.042969 13.570312 137.367188 12.132812 138.808594 10.820312 C 137.542969 10.953125 136.257812 11.128906 134.953125 11.363281 C 128.5625 12.503906 121.714844 14.957031 115.789062 18.308594 C 110.371094 21.375 105.738281 25.179688 102.960938 29.394531 C 100.328125 33.386719 99.347656 37.78125 99.511719 42.046875 C 99.710938 47.066406 101.488281 51.90625 104.039062 55.710938 C 105.5625 57.984375 107.359375 59.886719 109.300781 61.40625 C 112.4375 60.035156 115.710938 59.125 118.742188 58.609375 C 124.03125 57.710938 128.691406 58.039062 130.726562 59.199219 C 131.460938 59.621094 131.941406 60.160156 132.1875 60.785156 C 132.515625 61.609375 132.410156 62.484375 131.949219 63.339844 C 131.578125 64.035156 130.953125 64.726562 130.144531 65.351562 C 128.316406 66.761719 125.390625 67.953125 122.164062 68.15625 C 118.644531 68.378906 114.746094 67.445312 111.09375 65.40625 C 110.398438 65.015625 109.707031 64.585938 109.03125 64.113281 C 108.289062 64.476562 107.558594 64.863281 106.84375 65.289062 C 102.441406 67.890625 98.714844 71.660156 95.945312 76.542969 C 93.285156 81.222656 91.5 86.933594 90.824219 93.628906 C 90.152344 100.3125 90.578125 107.972656 91.730469 115.261719 C 92.96875 123.089844 95.050781 130.488281 97.496094 135.796875 C 98.558594 138.105469 99.699219 140.019531 100.875 141.617188 C 100.503906 140.460938 100.160156 139.253906 99.847656 138 C 98.574219 132.886719 97.832031 126.996094 97.765625 120.730469 C 97.695312 114.246094 98.347656 107.363281 99.59375 101.351562 C 100.792969 95.589844 102.546875 90.585938 104.742188 87.429688 C 107.921875 82.863281 111.867188 82.085938 115.609375 81.722656 C 116.003906 80.410156 116.460938 79.226562 116.992188 78.222656 C 118.136719 76.03125 119.613281 74.636719 121.105469 73.84375 C 122.164062 73.277344 123.234375 73.011719 124.214844 72.976562 C 125.234375 72.9375 126.167969 73.148438 126.910156 73.539062 C 127.574219 73.882812 128.09375 74.375 128.40625 74.964844 C 128.53125 75.191406 128.621094 75.433594 128.679688 75.683594 C 128.949219 76.816406 128.554688 78.117188 127.648438 79.332031 C 126.851562 80.402344 125.632812 81.445312 124.132812 82.242188 C 123.195312 82.746094 122.136719 83.15625 121.003906 83.421875 C 119.863281 83.691406 118.667969 83.808594 117.441406 83.914062 C 117.019531 85.636719 116.695312 87.570312 116.449219 89.617188 C 115.832031 94.761719 115.730469 100.597656 115.949219 105.785156 C 116.222656 112.183594 116.984375 117.648438 117.636719 122.335938 C 117.957031 124.632812 118.25 126.746094 118.449219 128.722656 C 118.519531 129.398438 118.578125 130.050781 118.625 130.6875 C 119.328125 130.507812 120.09375 130.371094 120.917969 130.28125 C 123.355469 130.023438 126.347656 130.191406 129.46875 130.6875 C 132.683594 131.199219 136.054688 132.0625 139.109375 133.152344 C 142.03125 134.195312 144.675781 135.460938 146.707031 136.691406 C 148.992188 138.078125 150.578125 139.496094 151.039062 140.609375 C 151.140625 140.863281 151.203125 141.109375 151.21875 141.34375 C 151.28125 142.199219 150.898438 142.851562 150.125 143.328125 C 149.609375 143.644531 148.890625 143.867188 148.003906 143.996094 C 147.636719 144.050781 147.234375 144.089844 146.792969 144.117188 C 149.148438 144.691406 151.335938 145.441406 152.960938 146.269531 C 154.765625 147.195312 155.949219 148.261719 156.464844 149.101562 C 156.714844 149.507812 156.847656 149.914062 156.859375 150.292969 C 156.878906 150.875 156.652344 151.359375 156.179688 151.695312 C 155.796875 151.964844 155.273438 152.09375 154.625 152.035156 C 154.039062 151.980469 153.300781 151.769531 152.464844 151.476562 L 152.484375 151.820312 C 152.507812 152.832031 152.234375 153.851562 151.511719 154.777344 C 151.097656 155.316406 150.523438 155.820312 149.765625 156.257812 L 150.796875 156.152344 C 153.378906 155.882812 155.371094 155.679688 156.242188 155.992188 C 157.996094 156.625 157.816406 157.613281 156.332031 158.980469 C 155.726562 159.535156 154.707031 160.265625 153.441406 161.160156 C 152.183594 162.054688 150.675781 163.113281 149.082031 164.042969 C 147.402344 165.019531 145.566406 165.910156 143.671875 166.449219 C 141.796875 166.980469 139.871094 167.164062 138.046875 167.058594 C 136.113281 166.949219 134.28125 166.511719 132.746094 165.808594 C 131.230469 165.117188 130.011719 164.179688 128.949219 163.121094 C 127.917969 162.097656 127.046875 160.976562 126.175781 159.84375 L 126.027344 159.648438 C 124.648438 157.859375 123.660156 155.964844 123.480469 156.03125 C 123.105469 156.171875 123.839844 156.601562 123.804688 158.128906 C 123.773438 159.6875 123.71875 161.863281 123.515625 164.675781 L 123.269531 167.699219 C 122.710938 174.296875 121.941406 183.371094 123.753906 191.902344 C 124.804688 196.84375 126.726562 201.648438 128.863281 205.964844 C 131.019531 210.316406 133.394531 214.171875 135.320312 217.183594 C 137.195312 220.117188 138.65625 222.261719 139.726562 223.679688 L 139.894531 223.921875 C 139.96875 222.800781 140.230469 221.464844 141.070312 220.183594 C 142.402344 218.152344 145.066406 216.492188 147.414062 215.027344 C 148.308594 214.46875 149.160156 213.9375 149.796875 213.476562 C 150.847656 212.71875 151.476562 212.066406 151.769531 211.457031 C 151.988281 211.003906 152.015625 210.539062 151.902344 210.035156 C 150.90625 209.675781 150.011719 209.332031 149.042969 208.714844 C 148.175781 208.164062 147.285156 207.40625 146.625 206.398438 C 145.941406 205.355469 145.507812 204.054688 145.589844 202.457031 C 145.648438 201.285156 145.992188 199.972656 146.429688 198.738281 C 147.085938 196.894531 147.96875 195.183594 148.417969 194.410156 C 149.046875 193.34375 149.644531 193.074219 150.390625 193.5 L 150.398438 193.503906 C 151.148438 193.941406 151.050781 194.578125 150.910156 195.574219 C 150.859375 195.949219 150.789062 196.425781 150.738281 197 C 150.644531 197.976562 150.628906 199.152344 150.75 200.367188 C 150.84375 201.328125 151.035156 202.316406 151.355469 203.253906 C 151.71875 204.308594 152.261719 205.320312 152.765625 206.261719 C 153.128906 206.929688 153.472656 207.570312 153.742188 208.203125 C 154.128906 208.347656 154.550781 208.511719 155.03125 208.710938 L 156.316406 209.285156 C 158.003906 210.046875 159.992188 210.953125 161.988281 211.125 L 162.011719 211.128906 L 161.539062 210.722656 C 160.785156 210.082031 159.964844 209.421875 159.136719 208.753906 C 156.199219 206.386719 153.113281 203.898438 152.320312 201.953125 C 151.589844 200.148438 152.363281 198.894531 154.132812 198.035156 C 155.417969 197.410156 157.335938 197.035156 159.539062 196.816406 C 160.660156 196.707031 161.804688 196.640625 162.960938 196.570312 C 166.191406 196.375 169.539062 196.171875 171.34375 195.191406 C 172.585938 194.515625 173.222656 193.308594 173.832031 192.148438 C 174.414062 191.027344 174.992188 189.941406 176.039062 189.085938 C 177.144531 188.1875 178.675781 187.671875 180.335938 187.460938 C 182.164062 187.222656 184.179688 187.34375 185.9375 187.691406 C 187.617188 188.023438 189.105469 188.570312 190.34375 189.382812 C 191.628906 190.226562 192.628906 191.34375 193.28125 192.792969 C 193.949219 194.265625 194.242188 196.085938 194.058594 197.867188 C 193.890625 199.507812 193.308594 201.125 192.242188 202.441406 C 191.144531 203.789062 189.558594 204.773438 187.96875 205.484375 C 186.4375 206.167969 184.902344 206.605469 183.824219 206.867188 C 182.671875 207.148438 181.964844 207.253906 181.410156 207.222656 C 180.703125 207.183594 180.320312 206.980469 179.800781 206.671875 L 179.722656 206.625 C 179.113281 206.269531 178.183594 205.71875 176.421875 206.007812 C 175.460938 206.167969 174.246094 206.554688 173.109375 207.011719 C 172.085938 207.421875 171.144531 207.875 170.519531 208.25 C 171.160156 208.75 171.488281 209.390625 171.207031 210.234375 C 171.023438 210.789062 170.507812 211.347656 169.496094 211.878906 C 169.007812 212.132812 168.359375 212.410156 167.613281 212.664062 C 168.414062 213.132812 169.171875 213.363281 169.996094 213.261719 C 171.082031 213.128906 172.476562 212.46875 174.125 211.6875 C 176.191406 210.707031 178.632812 209.546875 181.621094 208.851562 C 184.378906 208.207031 187.566406 207.96875 190.898438 207.964844 C 194.21875 207.960938 197.621094 208.179688 200.875 208.449219 C 204.144531 208.71875 207.289062 209.046875 210.089844 209.53125 C 212.9375 210.019531 215.429688 210.679688 217.339844 211.613281 C 219.246094 212.550781 220.574219 213.761719 221.355469 215.019531 C 222.320312 216.566406 222.488281 218.203125 221.941406 219.566406 C 221.417969 220.863281 220.300781 221.855469 218.199219 222.488281 C 216.386719 223.03125 213.738281 223.328125 209.925781 223.347656 C 206.972656 223.359375 203.339844 223.210938 199.582031 223.054688 C 193.851562 222.816406 187.800781 222.570312 183.566406 222.871094 C 179.128906 223.1875 176.695312 224.128906 174.703125 224.898438 C 173.539062 225.351562 172.507812 225.746094 171.304688 225.96875 C 169.71875 226.257812 167.972656 226.207031 166.210938 226.15625 C 164.34375 226.101562 162.457031 226.046875 160.910156 226.425781 C 159.765625 226.707031 158.75 227.242188 157.886719 227.859375 C 156.621094 228.765625 155.691406 229.84375 155.148438 230.585938 C 155.03125 230.746094 154.390625 230.257812 154.652344 230.519531 C 154.789062 230.65625 155.488281 230.816406 156.886719 231.074219 C 158.488281 231.371094 160.847656 231.734375 163.9375 231.839844 C 167.046875 231.941406 170.90625 231.785156 175.511719 231.035156 C 179.75 230.347656 184.644531 229.15625 189.300781 228.019531 C 194.917969 226.652344 200.207031 225.363281 203.746094 225.101562 C 205.90625 224.941406 207.5 225.164062 208.519531 225.675781 C 209.308594 226.066406 209.808594 226.625 210.023438 227.320312 C 210.234375 227.996094 210.15625 228.730469 209.792969 229.507812 C 209.261719 230.648438 208.023438 231.953125 206.125 233.285156 C 203.480469 235.136719 199.417969 237.136719 194.957031 238.851562 C 190.636719 240.511719 185.917969 241.921875 181.726562 242.679688 C 177.429688 243.464844 173.671875 243.574219 170.335938 243.226562 C 166.972656 242.875 164.039062 242.0625 161.414062 240.992188 C 158.433594 239.785156 155.835938 238.238281 153.589844 236.898438 C 152 235.953125 150.59375 235.117188 149.414062 234.621094 C 148.683594 234.316406 148.054688 234.136719 147.625 234.160156 C 147.554688 234.160156 147.550781 234.121094 147.535156 234.140625 C 147.523438 234.152344 147.523438 234.242188 147.535156 234.425781 C 147.566406 235.132812 147.957031 236.253906 148.8125 237.914062 C 150.367188 240.917969 153.371094 245.410156 156.902344 249.816406 C 159.855469 253.503906 163.167969 257.125 166.296875 259.753906 C 169.28125 262.261719 172.089844 263.859375 174.320312 264.679688 C 175.5 265.113281 176.476562 265.324219 177.191406 265.328125 C 177.554688 265.332031 177.785156 265.308594 177.859375 265.269531 C 177.886719 264.585938 176.722656 263.050781 175.097656 261.226562 C 173.234375 259.136719 170.816406 256.820312 168.730469 254.835938 L 168.449219 254.570312 C 165.933594 252.175781 163.910156 250.25 163.019531 248.753906 C 162.101562 247.226562 162.15625 246.035156 163.554688 245.199219 C 164.804688 244.453125 167.402344 244.382812 170.625 244.296875 C 172.984375 244.230469 175.703125 244.15625 178.328125 243.824219 C 180.839844 243.503906 183.351562 242.933594 185.519531 242.441406 C 188.734375 241.714844 191.257812 241.140625 192.582031 241.761719 C 194.710938 242.757812 193.761719 245.050781 192.460938 248.195312 C 191.957031 249.417969 191.386719 250.796875 190.9375 252.242188 L 190.859375 252.488281 C 190.226562 254.597656 189.847656 256.859375 190.082031 258.695312 C 190.285156 260.257812 190.964844 261.5 192.402344 261.953125 L 192.449219 261.96875 C 194.394531 262.550781 197.601562 261.980469 201.414062 259.921875 C 204.714844 258.136719 208.410156 255.25 212.085938 251.054688 C 217.675781 244.671875 223.257812 235.21875 228.042969 227.109375 C 230.292969 223.292969 232.371094 219.769531 234.25 216.921875 C 237.199219 212.445312 239.539062 209.835938 241.648438 208.164062 C 243.816406 206.441406 245.707031 205.714844 247.742188 204.996094 C 249.054688 204.535156 250.6875 203.992188 252.339844 203.441406 C 254.921875 202.582031 257.589844 201.699219 260.089844 200.730469 C 261.96875 200.003906 263.746094 199.234375 265.414062 197.464844 C 267.148438 195.628906 268.835938 192.699219 270.523438 187.632812 C 272.921875 180.445312 275.304688 169.023438 277.058594 160.585938 C 277.851562 156.78125 278.519531 153.578125 279.003906 151.640625 C 279.609375 149.210938 280.355469 148.171875 281.316406 148.410156 C 282.722656 148.757812 282.554688 154.695312 282.261719 164.878906 L 282.171875 168.136719 C 281.746094 183.195312 281.097656 206.003906 276.65625 220.890625 C 272.597656 234.496094 265.449219 241.4375 258.414062 248.277344 C 257.511719 249.148438 256.613281 250.023438 255.734375 250.898438 C 253.878906 252.746094 252.0625 254.640625 250.21875 256.566406 C 244.3125 262.730469 238.097656 269.226562 229.375 275.378906 C 223.46875 279.546875 216.414062 283.554688 209.394531 286.734375 C 202.722656 289.761719 196.0625 292.046875 190.421875 293.019531 C 184.546875 294.03125 179.765625 293.625 175.664062 292.433594 C 171.5625 291.25 168.183594 289.300781 165.0625 287.222656 C 161.960938 285.15625 159.089844 282.941406 156.285156 280.042969 C 153.496094 277.15625 150.796875 273.613281 148.042969 268.902344 C 145.5625 264.664062 143.023438 259.4375 140.675781 254.082031 C 137.871094 247.679688 135.339844 241.097656 133.523438 235.792969 C 131.851562 230.914062 130.773438 227.101562 130.070312 224.089844 C 129.363281 221.058594 129.03125 218.808594 128.851562 217.078125 C 128.519531 213.875 128.703125 212.421875 128.933594 211.132812 C 128.199219 209.820312 127.46875 208.441406 126.757812 207.007812 C 124.542969 202.539062 122.546875 197.550781 121.453125 192.394531 C 119.566406 183.519531 120.351562 174.25 120.925781 167.511719 L 121.167969 164.515625 C 121.378906 161.652344 121.425781 159.574219 121.457031 158.089844 C 121.515625 155.460938 121.542969 154.246094 122.664062 153.835938 C 124.097656 153.308594 125.964844 155.742188 127.875 158.222656 L 128.023438 158.417969 C 128.847656 159.484375 129.667969 160.546875 130.597656 161.46875 C 131.484375 162.351562 132.488281 163.128906 133.714844 163.6875 C 134.988281 164.269531 136.527344 164.636719 138.171875 164.730469 C 139.746094 164.820312 141.414062 164.65625 143.035156 164.199219 C 144.722656 163.722656 146.375 162.917969 147.894531 162.03125 C 149.5 161.089844 150.910156 160.097656 152.085938 159.261719 L 153.5 158.25 L 151.027344 158.496094 C 150.199219 158.582031 149.304688 158.671875 148.15625 158.777344 C 146.09375 158.960938 143.863281 159.109375 141.679688 159.15625 C 139.804688 159.203125 137.96875 159.175781 136.320312 159.050781 C 134.453125 158.910156 132.769531 158.636719 131.339844 158.121094 C 129.800781 157.570312 128.554688 156.738281 127.695312 155.507812 C 127.378906 155.050781 127.117188 154.550781 126.917969 154.011719 C 126.609375 154.074219 126.304688 154.109375 126 154.125 C 124.761719 154.1875 123.625 153.84375 122.402344 152.996094 C 121.226562 152.179688 119.945312 150.851562 118.980469 149.410156 C 118.105469 148.097656 117.476562 146.65625 117.398438 145.359375 L 117.394531 145.222656 C 117.351562 143.734375 117.980469 142.484375 119.332031 141.574219 C 120.496094 140.796875 122.210938 140.292969 124.503906 140.160156 L 125.140625 140.132812 C 128.191406 140.042969 132.191406 140.53125 136.058594 141.007812 C 138.261719 141.28125 140.425781 141.546875 142.289062 141.6875 C 144.535156 141.863281 146.382812 141.871094 147.660156 141.683594 C 148.171875 141.605469 148.558594 141.507812 148.804688 141.382812 C 148.441406 140.722656 147.242188 139.761719 145.492188 138.703125 C 143.585938 137.554688 141.09375 136.363281 138.320312 135.371094 C 135.402344 134.320312 132.175781 133.496094 129.101562 133.007812 C 126.179688 132.546875 123.402344 132.382812 121.164062 132.621094 C 120.269531 132.71875 119.464844 132.875 118.75 133.089844 C 118.792969 134.386719 118.777344 135.558594 118.707031 136.570312 C 118.546875 138.828125 118.0625 140.449219 117.246094 141.164062 C 116.90625 141.46875 116.519531 141.636719 116.117188 141.6875 C 115.464844 141.761719 114.816406 141.53125 114.242188 141.078125 C 113.789062 140.722656 113.367188 140.207031 113.039062 139.605469 C 112.546875 138.699219 112.246094 137.554688 112.359375 136.417969 C 112.519531 134.84375 113.445312 133.332031 115.136719 132.1875 C 115.496094 131.945312 115.894531 131.71875 116.328125 131.507812 C 116.277344 130.699219 116.207031 129.851562 116.117188 128.96875 C 115.921875 127.050781 115.628906 124.949219 115.3125 122.667969 C 114.652344 117.933594 113.882812 112.421875 113.605469 105.886719 C 113.382812 100.574219 113.484375 94.605469 114.117188 89.355469 C 114.335938 87.527344 114.621094 85.777344 114.976562 84.164062 C 112.023438 84.53125 109.019531 85.398438 106.667969 88.777344 C 104.652344 91.671875 103.023438 96.367188 101.890625 101.832031 C 100.671875 107.699219 100.035156 114.40625 100.105469 120.71875 C 100.167969 126.78125 100.890625 132.492188 102.121094 137.449219 C 102.949219 140.773438 104.007812 143.746094 105.25 146.25 C 107.375 147.980469 109.484375 149.101562 111.371094 150.109375 L 112.609375 150.777344 C 115.203125 152.195312 117.308594 153.621094 118.457031 154.730469 C 118.917969 155.179688 119.257812 155.609375 119.449219 156.003906 C 119.800781 156.738281 119.746094 157.402344 119.230469 157.953125 C 119.042969 158.15625 118.796875 158.316406 118.496094 158.425781 C 117.382812 158.828125 114.472656 158.488281 111.382812 156.648438 C 109.378906 155.460938 107.222656 153.640625 105.34375 150.992188 C 104.660156 150.027344 104.007812 148.953125 103.402344 147.777344 C 100.621094 145.441406 97.816406 142.097656 95.367188 136.785156 C 92.835938 131.296875 90.691406 123.675781 89.417969 115.636719 C 88.234375 108.152344 87.800781 100.289062 88.496094 93.40625 C 89.207031 86.375 91.09375 80.351562 93.910156 75.394531 C 96.886719 70.144531 100.902344 66.082031 105.652344 63.277344 C 106.089844 63.019531 106.53125 62.773438 106.976562 62.535156 C 105.1875 60.996094 103.527344 59.15625 102.09375 57.015625 C 99.320312 52.878906 97.382812 47.613281 97.171875 42.144531 C 96.988281 37.421875 98.078125 32.546875 101.003906 28.113281 C 104.003906 23.566406 108.917969 19.507812 114.632812 16.273438 C 120.792969 12.789062 127.910156 10.238281 134.550781 9.054688 C 137.128906 8.59375 139.640625 8.34375 142.042969 8.214844 C 143.96875 6.835938 146.007812 5.640625 148.074219 4.628906 C 154.402344 1.511719 160.996094 0.101562 164.960938 0.375 C 167.269531 0.535156 168.824219 1.273438 169.695312 2.28125 C 170.273438 2.949219 170.558594 3.730469 170.570312 4.550781 C 170.578125 5.324219 170.34375 6.113281 169.882812 6.855469 C 168.964844 8.335938 167.085938 9.695312 164.484375 10.332031 C 161.625 11.03125 157.925781 10.863281 153.546875 10.667969 C 150.320312 10.523438 146.71875 10.359375 142.855469 10.527344 C 140.554688 12.242188 138.464844 14.242188 136.785156 16.519531 C 133.445312 21.050781 131.707031 26.734375 131.238281 32.585938 C 130.707031 39.203125 131.789062 46.007812 134.015625 51.601562 L 134.25 52.171875 C 134.210938 48.3125 134.992188 44.347656 136.707031 40.648438 C 138.996094 35.707031 142.945312 31.257812 148.804688 28.207031 C 154.960938 25.003906 163.226562 23.375 171.765625 22.546875 C 176.480469 22.089844 181.261719 21.875 185.804688 21.773438 C 189.082031 19.878906 192.507812 18.191406 195.878906 16.78125 C 202.464844 14.023438 208.875 12.300781 213.519531 12.082031 C 216.875 11.925781 219.375 12.554688 221.058594 13.546875 C 222.175781 14.207031 222.960938 15.042969 223.421875 15.9375 C 223.917969 16.898438 224.042969 17.925781 223.820312 18.894531 C 223.605469 19.824219 223.074219 20.6875 222.246094 21.386719 C 219.085938 24.042969 211.457031 24.039062 198.195312 24.035156 L 196.101562 24.035156 C 193.113281 24.039062 189.851562 24.042969 186.457031 24.109375 C 184.027344 25.542969 181.695312 27.09375 179.550781 28.734375 C 174.320312 32.738281 170.222656 37.277344 167.660156 41.671875 C 165.171875 45.9375 164.140625 50.035156 164.945312 53.3125 C 165.386719 55.117188 166.40625 56.703125 167.832031 58.054688 C 167.53125 57.226562 167.332031 56.359375 167.246094 55.460938 C 166.855469 51.464844 168.742188 46.933594 172.554688 43.171875 C 175.875 39.898438 180.683594 37.1875 186.722656 35.925781 C 197.4375 33.6875 212.003906 36.035156 224.855469 38.507812 C 228.5 37.054688 232.816406 35.867188 237.179688 35.03125 C 243.925781 33.738281 250.835938 33.273438 255.578125 33.949219 C 259.140625 34.457031 261.5625 35.625 262.957031 37.003906 C 263.769531 37.808594 264.253906 38.699219 264.429688 39.59375 C 264.617188 40.546875 264.460938 41.488281 263.992188 42.339844 C 263.410156 43.394531 262.339844 44.296875 260.839844 44.867188 C 258.234375 45.855469 254.25 45.851562 249.105469 45.238281 C 244.089844 44.644531 237.941406 43.472656 230.878906 42.078125 L 225.078125 40.941406 C 223.726562 41.507812 222.488281 42.113281 221.402344 42.75 C 220.132812 43.496094 219.074219 44.296875 218.222656 45.125 C 216.605469 46.703125 215.757812 48.402344 215.582031 50.128906 C 215.40625 51.871094 215.898438 53.691406 216.957031 55.492188 C 217.597656 56.578125 218.449219 57.660156 219.484375 58.722656 C 221.902344 61.199219 225.371094 63.558594 228.984375 66.011719 C 233.898438 69.355469 239.078125 72.878906 242.570312 77.308594 C 245.382812 80.878906 247.058594 84.980469 247.917969 89.199219 C 248.941406 94.226562 248.804688 99.425781 248.074219 104.070312 C 247.398438 108.355469 246.210938 112.195312 244.34375 115.28125 C 242.421875 118.460938 239.785156 120.851562 236.261719 122.132812 C 232.476562 123.515625 227.773438 123.558594 222.15625 123.613281 C 217.765625 123.652344 212.792969 123.703125 207.324219 124.410156 C 201.371094 125.179688 194.773438 126.734375 188.910156 128.5625 C 182.738281 130.488281 177.417969 132.699219 174.574219 134.59375 C 173.347656 135.410156 172.65625 136.105469 172.425781 136.660156 C 172.363281 136.820312 172.355469 136.945312 172.398438 137.023438 C 172.507812 137.207031 172.761719 137.386719 173.160156 137.554688 C 174.5 138.128906 176.875 138.316406 179.96875 137.988281 C 185.078125 137.445312 192.042969 135.46875 199.035156 133.484375 C 202.929688 132.382812 206.832031 131.277344 210.542969 130.386719 C 215.75 129.136719 220.371094 128.375 224.210938 128.152344 C 228.066406 127.929688 231.1875 128.25 233.394531 129.152344 C 233.632812 129.246094 233.875 129.359375 234.113281 129.480469 C 236.089844 130.496094 237.222656 132.007812 237.707031 133.65625 C 238.1875 135.285156 238.015625 137.035156 237.390625 138.550781 C 237.3125 138.746094 237.214844 138.953125 237.109375 139.160156 C 236.265625 140.816406 234.867188 142.117188 233.140625 142.898438 C 231.5 143.636719 229.550781 143.914062 227.484375 143.574219 C 225.546875 143.257812 223.574219 142.417969 221.449219 141.511719 C 219.296875 140.59375 216.972656 139.597656 214.511719 139.101562 C 212.332031 138.660156 209.960938 138.582031 207.640625 138.746094 C 204.886719 138.945312 202.210938 139.484375 199.976562 140.160156 C 197.941406 140.769531 196.289062 141.492188 194.960938 142.300781 C 193.679688 143.085938 192.695312 143.957031 191.96875 144.890625 C 191.308594 145.738281 190.851562 146.65625 190.589844 147.460938 C 190.46875 147.832031 190.386719 148.148438 190.339844 148.40625 C 190.890625 148.082031 191.628906 147.527344 192.53125 146.789062 L 193.273438 146.175781 C 195.515625 144.316406 198.484375 141.851562 202.21875 140.753906 C 203.441406 140.398438 204.726562 140.191406 206.035156 140.097656 C 206.40625 139.929688 206.8125 139.785156 207.253906 139.664062 C 208.75 139.253906 210.707031 139.125 212.507812 139.246094 C 214.34375 139.371094 216.078125 139.765625 217.113281 140.402344 C 217.390625 140.574219 217.628906 140.769531 217.824219 140.96875 C 218.003906 141.15625 218.152344 141.351562 218.269531 141.558594 C 219.003906 141.761719 219.660156 141.976562 220.21875 142.199219 C 221.832031 142.84375 222.746094 143.699219 222.621094 144.792969 L 222.597656 144.945312 C 222.40625 145.90625 221.28125 146.683594 219.703125 147.351562 C 218.433594 147.890625 216.789062 148.425781 215.164062 148.945312 C 213.53125 149.464844 211.914062 149.96875 210.464844 150.28125 C 209.871094 150.410156 209.296875 150.507812 208.742188 150.558594 C 207.953125 150.746094 207.089844 150.921875 206.136719 151.082031 C 204.289062 151.398438 202.171875 151.664062 200.042969 151.925781 C 195.710938 152.464844 191.339844 153.011719 189.957031 153.84375 L 189.902344 153.875 C 190.042969 154.050781 190.289062 154.257812 190.617188 154.484375 C 191.878906 155.351562 194.074219 156.25 196.648438 156.988281 C 199.273438 157.746094 202.257812 158.320312 205.652344 158.335938 C 209.0625 158.355469 212.921875 157.816406 217.300781 156.351562 C 221.738281 154.863281 226.714844 152.421875 231.515625 149.753906 C 236.355469 147.070312 241.007812 144.167969 244.765625 141.777344 C 248.492188 139.40625 251.335938 137.542969 253.460938 135.75 C 255.496094 134.03125 256.867188 132.382812 257.730469 130.386719 C 258.613281 128.355469 259.011719 125.929688 258.933594 123.5 C 258.90625 122.660156 258.820312 121.824219 258.679688 121.003906 C 257.972656 120.269531 257.296875 119.539062 256.664062 118.824219 C 253.976562 115.796875 252 113.03125 251.542969 111.714844 C 251.324219 111.089844 251.34375 110.570312 251.5625 110.15625 C 251.90625 109.496094 252.5 109.265625 253.269531 109.417969 C 253.613281 109.484375 254.023438 109.667969 254.46875 109.941406 C 255.882812 110.8125 258.007812 112.933594 259.375 115.617188 C 260.039062 116.921875 260.53125 118.371094 260.851562 119.875 C 262.4375 121.492188 264.167969 123.101562 265.914062 124.523438 C 269.242188 127.230469 272.691406 129.277344 275.527344 130.964844 C 277.753906 132.289062 279.621094 133.402344 280.878906 134.5 C 284.207031 137.410156 282.917969 148.851562 281.953125 151.265625 L 281.914062 151.355469 Z M 208.339844 148.261719 C 209.726562 147.929688 210.839844 147.5625 211.757812 147.164062 C 213.125 146.570312 214.054688 145.898438 214.804688 145.179688 C 215.261719 144.742188 215.652344 144.289062 215.921875 143.847656 C 216.007812 143.714844 216.078125 143.589844 216.132812 143.46875 L 214.785156 143.183594 C 212.929688 142.820312 210.847656 142.503906 208.785156 142.421875 C 208.070312 142.394531 207.355469 142.394531 206.652344 142.429688 C 206.273438 142.640625 205.972656 142.886719 205.738281 143.160156 C 205.242188 143.734375 205.03125 144.449219 205.003906 145.183594 C 204.976562 145.933594 205.136719 146.691406 205.507812 147.273438 C 205.796875 147.714844 206.226562 148.058594 206.8125 148.203125 C 207.238281 148.300781 207.75 148.316406 208.335938 148.265625 Z M 217.921875 145.070312 C 217.792969 145.289062 217.640625 145.507812 217.46875 145.722656 C 217.9375 145.554688 218.382812 145.382812 218.785156 145.214844 C 219.675781 144.835938 220.277344 144.5625 220.289062 144.507812 C 220.316406 144.34375 219.898438 144.617188 219.347656 144.390625 C 219.070312 144.28125 218.757812 144.167969 218.414062 144.0625 C 218.292969 144.402344 218.128906 144.742188 217.925781 145.074219 Z M 237.617188 37.347656 C 234.773438 37.894531 231.964844 38.585938 229.367188 39.402344 L 231.328125 39.792969 C 238.351562 41.175781 244.460938 42.339844 249.378906 42.925781 C 254.167969 43.496094 257.796875 43.527344 260.003906 42.691406 C 260.960938 42.328125 261.613281 41.804688 261.933594 41.226562 C 262.132812 40.863281 262.199219 40.464844 262.121094 40.070312 C 262.027344 39.617188 261.761719 39.140625 261.296875 38.683594 C 260.234375 37.628906 258.261719 36.714844 255.242188 36.289062 C 250.757812 35.648438 244.128906 36.101562 237.613281 37.351562 Z M 182.871094 65.832031 C 183.878906 65.972656 184.90625 66.039062 185.9375 66.03125 C 187.746094 66.019531 189.582031 65.765625 191.339844 65.375 L 192.324219 65.140625 C 189.894531 65.570312 187.253906 65.871094 184.589844 65.871094 C 184.019531 65.871094 183.445312 65.859375 182.871094 65.828125 Z M 196.78125 18.957031 C 194.804688 19.78125 192.808594 20.707031 190.839844 21.710938 L 198.195312 21.703125 C 210.917969 21.710938 218.238281 21.710938 220.738281 19.613281 C 221.164062 19.253906 221.433594 18.828125 221.53125 18.382812 C 221.632812 17.949219 221.570312 17.476562 221.339844 17.023438 C 221.074219 16.503906 220.585938 16.003906 219.863281 15.578125 C 218.535156 14.792969 216.476562 14.300781 213.621094 14.433594 C 209.25 14.636719 203.132812 16.292969 196.777344 18.957031 Z M 141.140625 66.199219 C 141.785156 67.148438 142.476562 68.050781 143.203125 68.898438 C 146.433594 72.6875 150.320312 75.441406 153.644531 76.765625 C 156.09375 77.738281 158.222656 77.925781 159.863281 77.734375 C 160.824219 77.621094 161.597656 77.378906 162.15625 77.101562 C 162.347656 77.003906 162.5 76.914062 162.609375 76.84375 C 162.332031 76.828125 161.726562 76.960938 160.820312 76.738281 C 158.726562 76.21875 155.632812 75.449219 151.933594 73.675781 C 148.558594 72.058594 144.714844 69.613281 141.148438 66.199219 Z M 149.117188 6.734375 C 148.242188 7.164062 147.375 7.625 146.523438 8.121094 C 149.054688 8.128906 151.441406 8.238281 153.652344 8.335938 C 157.851562 8.523438 161.402344 8.683594 163.9375 8.066406 C 165.90625 7.585938 167.273438 6.640625 167.894531 5.636719 C 168.121094 5.269531 168.238281 4.914062 168.234375 4.589844 C 168.230469 4.320312 168.128906 4.054688 167.929688 3.820312 C 167.445312 3.257812 166.433594 2.839844 164.8125 2.722656 C 161.1875 2.46875 155.074219 3.804688 149.117188 6.734375 Z M 111.609375 63.007812 L 112.242188 63.371094 C 115.496094 65.191406 118.941406 66.023438 122.027344 65.828125 C 124.765625 65.65625 127.214844 64.671875 128.722656 63.507812 C 129.273438 63.082031 129.675781 62.648438 129.890625 62.242188 C 130.023438 61.996094 130.070312 61.792969 130.011719 61.652344 C 129.964844 61.527344 129.820312 61.390625 129.570312 61.246094 C 127.953125 60.324219 123.90625 60.125 119.132812 60.933594 C 116.714844 61.34375 114.132812 62.023438 111.609375 63.003906 Z M 110.28125 152.183594 L 108.519531 151.230469 C 109.847656 152.738281 111.257812 153.851562 112.589844 154.640625 C 114.234375 155.617188 115.683594 156.105469 116.65625 156.253906 C 115.621094 155.308594 113.78125 154.09375 111.5 152.84375 Z M 118.148438 81.507812 C 118.972656 81.425781 119.757812 81.320312 120.480469 81.152344 C 121.414062 80.929688 122.277344 80.597656 123.039062 80.191406 C 124.222656 79.554688 125.171875 78.757812 125.769531 77.949219 C 126.265625 77.285156 126.503906 76.667969 126.398438 76.226562 L 126.339844 76.070312 C 126.25 75.90625 126.070312 75.75 125.832031 75.625 C 125.4375 75.417969 124.90625 75.304688 124.300781 75.324219 C 123.65625 75.351562 122.9375 75.53125 122.214844 75.917969 C 121.101562 76.507812 119.980469 77.589844 119.074219 79.3125 C 118.734375 79.960938 118.425781 80.695312 118.148438 81.503906 Z M 116.371094 136.410156 C 116.417969 135.734375 116.441406 134.976562 116.433594 134.15625 C 115.367188 134.886719 114.789062 135.773438 114.703125 136.65625 C 114.636719 137.292969 114.816406 137.957031 115.105469 138.492188 C 115.277344 138.8125 115.488281 139.078125 115.699219 139.242188 L 115.792969 139.320312 C 116.070312 138.929688 116.265625 137.90625 116.371094 136.410156 Z M 134.609375 143.203125 C 131.183594 142.789062 127.753906 142.410156 125.210938 142.480469 L 124.648438 142.507812 C 122.792969 142.617188 121.472656 142.976562 120.652344 143.527344 C 120.027344 143.949219 119.730469 144.503906 119.742188 145.148438 L 119.746094 145.238281 C 119.792969 146.085938 120.269531 147.121094 120.933594 148.113281 C 121.734375 149.3125 122.792969 150.410156 123.75 151.070312 C 124.523438 151.609375 125.199219 151.824219 125.898438 151.792969 C 126.074219 151.785156 126.257812 151.761719 126.441406 151.722656 C 126.429688 151.484375 126.425781 151.246094 126.429688 151.007812 C 126.46875 149.445312 126.957031 147.863281 127.941406 146.585938 C 128.929688 145.296875 130.402344 144.34375 132.277344 143.742188 C 132.992188 143.515625 133.773438 143.332031 134.609375 143.203125 Z M 129.71875 152.992188 L 129.140625 153.261719 C 129.269531 153.59375 129.433594 153.902344 129.625 154.179688 C 130.1875 154.976562 131.046875 155.539062 132.136719 155.929688 C 133.335938 156.359375 134.820312 156.597656 136.503906 156.722656 C 137.226562 156.777344 137.976562 156.8125 138.75 156.832031 C 137.796875 156.171875 137.160156 155.253906 136.839844 154.238281 C 136.449219 152.996094 136.53125 151.601562 137.078125 150.375 L 137.113281 150.296875 C 137.300781 149.882812 137.546875 149.492188 137.839844 149.128906 C 135.714844 149.816406 133.644531 150.921875 131.851562 151.882812 C 131.082031 152.296875 130.351562 152.6875 129.714844 152.996094 Z M 128.785156 150.839844 C 129.410156 150.53125 130.0625 150.179688 130.753906 149.8125 C 132.972656 148.625 135.597656 147.222656 138.375 146.535156 C 140.152344 146.09375 141.972656 145.953125 143.648438 146.03125 C 144.164062 146.054688 144.664062 146.101562 145.148438 146.164062 C 142.949219 145.691406 140.660156 145.382812 138.621094 145.324219 C 136.429688 145.261719 134.53125 145.480469 132.996094 145.972656 C 131.578125 146.425781 130.492188 147.113281 129.800781 148.015625 C 129.179688 148.820312 128.851562 149.824219 128.785156 150.835938 Z M 149.164062 147.257812 C 149.871094 147.59375 150.445312 147.980469 150.90625 148.40625 L 151.496094 148.632812 C 152.242188 148.914062 152.933594 149.179688 153.519531 149.375 C 153.101562 149.054688 152.5625 148.714844 151.902344 148.378906 C 151.121094 147.984375 150.191406 147.605469 149.167969 147.257812 Z M 150.140625 151.894531 C 150.132812 151.390625 149.964844 150.878906 149.585938 150.417969 C 147.992188 149.820312 146.277344 149.234375 144.828125 149.035156 C 143.417969 148.839844 142.21875 149.007812 141.277344 149.410156 C 140.308594 149.824219 139.609375 150.496094 139.246094 151.277344 L 139.214844 151.335938 C 138.90625 152.035156 138.859375 152.828125 139.082031 153.523438 C 139.292969 154.199219 139.765625 154.796875 140.507812 155.140625 L 140.566406 155.167969 C 141.398438 155.53125 142.5625 155.632812 143.777344 155.550781 C 145.257812 155.457031 146.773438 155.089844 147.871094 154.613281 C 148.726562 154.242188 149.304688 153.8125 149.664062 153.351562 C 150.019531 152.898438 150.15625 152.394531 150.144531 151.890625 Z M 133.351562 218.457031 C 132.628906 217.324219 131.847656 216.085938 131.039062 214.746094 C 131.058594 215.339844 131.109375 216.027344 131.191406 216.84375 C 131.363281 218.480469 131.679688 220.621094 132.363281 223.558594 C 133.054688 226.511719 134.109375 230.25 135.753906 235.046875 C 137.554688 240.304688 140.058594 246.820312 142.832031 253.148438 C 145.136719 258.402344 147.632812 263.539062 150.078125 267.726562 C 152.738281 272.28125 155.324219 275.679688 157.980469 278.425781 C 160.625 281.160156 163.378906 283.28125 166.371094 285.277344 C 169.339844 287.253906 172.53125 289.097656 176.316406 290.195312 C 180.101562 291.289062 184.535156 291.660156 190.027344 290.714844 C 195.460938 289.777344 201.925781 287.554688 208.433594 284.601562 C 215.320312 281.480469 222.238281 277.550781 228.027344 273.464844 C 236.605469 267.417969 242.722656 261.023438 248.527344 254.960938 C 250.386719 253.007812 252.222656 251.09375 254.085938 249.238281 C 254.984375 248.34375 255.886719 247.46875 256.78125 246.597656 C 263.601562 239.972656 270.523438 233.25 274.410156 220.226562 C 278.769531 205.617188 279.410156 183.007812 279.832031 168.078125 L 279.925781 164.816406 C 280.03125 161.136719 280.261719 158.117188 280.464844 155.828125 L 279.363281 161.066406 C 277.597656 169.546875 275.203125 181.027344 272.753906 188.371094 C 270.941406 193.808594 269.074219 197.015625 267.128906 199.078125 C 265.121094 201.207031 263.089844 202.09375 260.941406 202.921875 C 258.414062 203.898438 255.707031 204.796875 253.082031 205.671875 C 251.59375 206.167969 250.140625 206.648438 248.53125 207.214844 C 246.691406 207.863281 244.996094 208.515625 243.117188 210.003906 C 241.179688 211.539062 239 213.980469 236.214844 218.214844 C 234.425781 220.929688 232.335938 224.46875 230.070312 228.308594 C 225.238281 236.5 219.601562 246.042969 213.855469 252.601562 C 209.972656 257.03125 206.050781 260.089844 202.53125 261.992188 C 198.140625 264.363281 194.273438 264.96875 191.785156 264.222656 L 191.722656 264.203125 C 189.234375 263.429688 188.078125 261.457031 187.765625 258.996094 C 187.480469 256.796875 187.902344 254.203125 188.613281 251.828125 L 188.699219 251.558594 C 189.179688 250 189.769531 248.570312 190.296875 247.304688 C 191.105469 245.355469 191.691406 243.9375 191.59375 243.890625 C 191 243.609375 188.816406 244.105469 186.035156 244.738281 C 183.832031 245.238281 181.277344 245.816406 178.625 246.152344 C 175.875 246.503906 173.089844 246.578125 170.679688 246.644531 C 167.804688 246.722656 165.484375 246.785156 164.761719 247.214844 C 164.722656 247.234375 164.886719 247.320312 165.03125 247.5625 C 165.746094 248.765625 167.671875 250.597656 170.070312 252.878906 L 170.351562 253.144531 C 172.488281 255.183594 174.96875 257.554688 176.859375 259.675781 C 178.949219 262.015625 180.390625 264.1875 180.183594 265.664062 C 180.144531 265.953125 180.046875 266.226562 179.898438 266.46875 C 179.421875 267.265625 178.472656 267.683594 177.191406 267.675781 C 176.203125 267.671875 174.945312 267.417969 173.519531 266.894531 C 171.078125 265.992188 168.015625 264.257812 164.796875 261.554688 C 161.546875 258.820312 158.121094 255.082031 155.082031 251.285156 C 151.449219 246.746094 148.347656 242.109375 146.734375 238.996094 C 145.710938 237.019531 145.246094 235.570312 145.195312 234.546875 C 145.15625 233.714844 145.367188 233.074219 145.777344 232.609375 C 146.214844 232.105469 146.808594 231.863281 147.523438 231.828125 C 148.316406 231.785156 149.292969 232.035156 150.328125 232.476562 C 151.675781 233.039062 153.140625 233.914062 154.796875 234.898438 C 156.945312 236.179688 159.433594 237.664062 162.300781 238.828125 C 164.75 239.824219 167.472656 240.582031 170.582031 240.90625 C 173.71875 241.234375 177.257812 241.125 181.320312 240.386719 C 185.375 239.652344 189.941406 238.285156 194.128906 236.675781 C 198.414062 235.03125 202.292969 233.128906 204.792969 231.375 C 206.347656 230.289062 207.316406 229.304688 207.679688 228.527344 C 207.785156 228.304688 207.824219 228.136719 207.792969 228.035156 C 207.769531 227.953125 207.664062 227.867188 207.476562 227.773438 C 206.828125 227.449219 205.652344 227.320312 203.925781 227.445312 C 200.550781 227.699219 195.367188 228.960938 189.855469 230.304688 C 185.15625 231.449219 180.214844 232.652344 175.890625 233.355469 C 171.121094 234.128906 167.105469 234.292969 163.871094 234.183594 C 160.613281 234.074219 158.144531 233.695312 156.46875 233.382812 C 154.589844 233.035156 153.542969 232.722656 153.003906 232.1875 C 152.074219 231.257812 152.371094 230.425781 153.261719 229.207031 C 153.914062 228.316406 155.023438 227.03125 156.523438 225.960938 C 157.601562 225.191406 158.890625 224.519531 160.367188 224.160156 C 162.214844 223.707031 164.261719 223.765625 166.285156 223.824219 C 167.917969 223.867188 169.539062 223.914062 170.890625 223.667969 C 171.882812 223.488281 172.816406 223.125 173.867188 222.71875 C 176.015625 221.890625 178.640625 220.878906 183.410156 220.539062 C 187.742188 220.226562 193.875 220.480469 199.6875 220.71875 C 203.4375 220.875 207.0625 221.023438 209.925781 221.011719 C 213.492188 220.996094 215.925781 220.734375 217.539062 220.246094 C 218.863281 219.847656 219.523438 219.328125 219.777344 218.699219 C 220.046875 218.023438 219.925781 217.148438 219.375 216.265625 C 218.808594 215.347656 217.800781 214.449219 216.324219 213.722656 C 214.648438 212.902344 212.363281 212.304688 209.707031 211.851562 C 207.007812 211.386719 203.921875 211.066406 200.695312 210.800781 C 197.445312 210.527344 194.078125 210.308594 190.914062 210.316406 C 187.765625 210.316406 184.757812 210.539062 182.167969 211.144531 C 179.421875 211.789062 177.101562 212.886719 175.140625 213.816406 C 173.304688 214.6875 171.753906 215.421875 170.296875 215.601562 C 168.078125 215.875 166.476562 214.933594 164.613281 213.386719 C 163.691406 213.511719 162.738281 213.554688 161.800781 213.476562 C 159.402344 213.269531 157.214844 212.273438 155.359375 211.429688 L 154.3125 210.957031 C 154.269531 211.464844 154.136719 211.972656 153.886719 212.484375 C 153.421875 213.449219 152.554688 214.386719 151.171875 215.386719 C 150.417969 215.929688 149.5625 216.464844 148.660156 217.027344 C 146.515625 218.367188 144.078125 219.882812 143.042969 221.472656 C 142.175781 222.800781 142.203125 224.378906 142.222656 225.363281 C 142.242188 226.558594 142.261719 227.347656 141.160156 227.625 C 140.390625 227.816406 139.296875 227.011719 137.859375 225.101562 C 136.785156 223.675781 135.289062 221.476562 133.355469 218.449219 Z M 140.519531 225.335938 C 140.539062 225.355469 140.558594 225.359375 140.585938 225.351562 C 140.933594 225.265625 140.773438 225.292969 140.519531 225.335938 Z M 150.398438 206.820312 C 149.941406 205.949219 149.476562 205.027344 149.136719 204.03125 C 148.761719 202.929688 148.535156 201.757812 148.421875 200.613281 L 148.394531 200.300781 C 148.144531 201.105469 147.96875 201.902344 147.933594 202.589844 C 147.882812 203.628906 148.160156 204.464844 148.59375 205.132812 C 149.050781 205.832031 149.683594 206.363281 150.304688 206.757812 L 150.402344 206.820312 Z M 165.300781 210.894531 C 166.597656 210.617188 167.722656 210.191406 168.429688 209.820312 L 168.542969 209.761719 C 168.351562 209.628906 168.167969 209.476562 168.007812 209.257812 C 167.425781 208.488281 167.386719 207.648438 168.714844 206.667969 C 169.421875 206.140625 170.785156 205.441406 172.253906 204.851562 C 173.527344 204.339844 174.914062 203.898438 176.058594 203.710938 C 178.667969 203.28125 180.039062 204.09375 180.929688 204.621094 L 181.003906 204.667969 C 181.230469 204.800781 181.390625 204.886719 181.554688 204.894531 C 181.867188 204.914062 182.371094 204.832031 183.28125 204.605469 C 184.265625 204.367188 185.664062 203.96875 187.027344 203.359375 C 188.328125 202.777344 189.605469 201.996094 190.4375 200.976562 C 191.203125 200.039062 191.617188 198.855469 191.742188 197.648438 C 191.882812 196.28125 191.664062 194.890625 191.160156 193.773438 C 190.695312 192.75 189.984375 191.953125 189.074219 191.355469 C 188.109375 190.726562 186.90625 190.289062 185.503906 190.011719 C 183.953125 189.707031 182.203125 189.597656 180.644531 189.800781 C 179.394531 189.957031 178.273438 190.316406 177.53125 190.921875 C 176.851562 191.472656 176.390625 192.351562 175.917969 193.246094 C 175.144531 194.726562 174.339844 196.253906 172.476562 197.265625 C 170.207031 198.496094 166.597656 198.714844 163.109375 198.925781 C 161.949219 198.996094 160.796875 199.066406 159.78125 199.167969 C 157.832031 199.355469 156.179688 199.667969 155.164062 200.164062 C 154.625 200.421875 154.359375 200.730469 154.507812 201.089844 C 155.070312 202.476562 157.910156 204.765625 160.613281 206.945312 C 161.46875 207.632812 162.3125 208.316406 163.0625 208.949219 C 163.683594 209.476562 164.171875 209.902344 164.621094 210.300781 Z M 280.761719 150.691406 C 280.492188 150.628906 280.644531 150.765625 280.859375 151.027344 C 280.851562 150.820312 280.820312 150.707031 280.761719 150.691406 Z M 280.761719 150.691406 " fill-opacity="1" fill-rule="nonzero"/><g clip-path="url(#f24e7d3100)"><path fill="#000000" d="M 287.285156 256.867188 C 266.457031 298.136719 245.628906 339.414062 233.816406 356.796875 C 227.550781 366.015625 223.441406 368.761719 220.800781 367.71875 C 218.105469 366.65625 217.292969 361.886719 217.390625 356.054688 C 217.40625 355.101562 217.445312 354.117188 217.503906 353.113281 L 216.757812 354.269531 C 215.171875 356.628906 213.621094 358.359375 212.257812 359.265625 C 210.589844 360.382812 209.148438 360.402344 207.777344 359.476562 C 206.652344 358.714844 205.664062 357.261719 204.664062 355.21875 C 203.71875 353.300781 202.738281 350.84375 201.695312 347.917969 C 200.660156 345.019531 199.546875 341.621094 198.347656 337.816406 L 196.238281 331.050781 C 194.578125 325.710938 192.847656 320.136719 191.238281 315.386719 L 191.085938 315.480469 C 190.636719 315.75 190.160156 316.023438 189.660156 316.296875 C 187.347656 317.554688 184.546875 318.820312 181.449219 320.21875 C 173.550781 323.785156 163.65625 328.257812 155.910156 335.285156 C 145.132812 345.058594 138.277344 359.972656 131.425781 374.882812 L 129.292969 373.910156 C 136.25 358.773438 143.210938 343.636719 154.328125 333.546875 C 162.355469 326.269531 172.4375 321.714844 180.480469 318.082031 C 183.566406 316.6875 186.355469 315.425781 188.535156 314.238281 C 189.003906 313.984375 189.453125 313.726562 189.878906 313.472656 L 190.449219 313.121094 L 189.53125 310.558594 C 187.527344 304.945312 186.128906 301.042969 187.664062 299.34375 C 187.816406 299.167969 187.996094 299.019531 188.191406 298.90625 C 189.121094 298.351562 190.488281 298.414062 191.910156 298.933594 C 193.148438 299.382812 194.496094 300.1875 195.621094 301.203125 C 196.316406 301.832031 196.929688 302.546875 197.390625 303.316406 L 197.542969 303.582031 C 198.496094 305.324219 198.671875 307.289062 197.59375 309.414062 C 196.84375 310.898438 195.457031 312.457031 193.25 314.058594 C 194.945312 319.015625 196.75 324.816406 198.472656 330.363281 L 200.582031 337.113281 C 201.769531 340.867188 202.871094 344.234375 203.90625 347.132812 C 204.929688 350.011719 205.878906 352.390625 206.761719 354.191406 C 207.585938 355.871094 208.335938 357.023438 209.085938 357.53125 C 209.589844 357.871094 210.1875 357.824219 210.953125 357.3125 C 212.0625 356.578125 213.390625 355.070312 214.804688 352.96875 C 215.855469 351.40625 216.9375 349.527344 218.003906 347.390625 C 218.28125 344.964844 218.636719 342.507812 219.039062 340.117188 C 220.152344 333.503906 221.628906 327.367188 222.804688 323.882812 C 223.515625 321.761719 224.175781 320.507812 224.734375 319.945312 C 225.324219 319.351562 225.949219 319.222656 226.570312 319.496094 C 227.058594 319.714844 227.398438 320.164062 227.585938 320.8125 C 227.863281 321.789062 227.878906 323.601562 227.570312 325.84375 C 227.203125 328.523438 226.371094 331.910156 225.273438 335.421875 C 224.15625 338.984375 222.753906 342.703125 221.269531 345.980469 C 220.945312 346.699219 220.617188 347.394531 220.285156 348.070312 C 219.972656 350.867188 219.769531 353.597656 219.730469 356.09375 C 219.644531 361.003906 220.09375 364.921875 221.648438 365.535156 C 223.25 366.167969 226.378906 363.570312 231.875 355.484375 C 243.582031 338.257812 264.386719 297.03125 285.1875 255.808594 L 287.28125 256.867188 Z M 225.035156 324.621094 C 223.992188 327.710938 222.703125 332.980469 221.652344 338.808594 C 222.148438 337.449219 222.613281 336.074219 223.035156 334.722656 C 224.105469 331.3125 224.90625 328.066406 225.253906 325.53125 C 225.363281 324.75 225.429688 324.046875 225.457031 323.441406 Z M 191.75 309.765625 L 192.449219 311.734375 C 193.996094 310.539062 194.976562 309.410156 195.507812 308.351562 C 196.183594 307.019531 196.082031 305.792969 195.503906 304.71875 L 195.375 304.496094 C 195.039062 303.9375 194.578125 303.410156 194.054688 302.9375 C 193.160156 302.128906 192.09375 301.488281 191.117188 301.132812 C 190.335938 300.847656 189.691406 300.746094 189.410156 300.910156 C 188.816406 301.566406 190.019531 304.925781 191.75 309.765625 Z M 191.75 309.765625 " fill-opacity="1" fill-rule="nonzero"/></g></svg>