<svg xmlns="http://www.w3.org/2000/svg" xmlns:xlink="http://www.w3.org/1999/xlink" width="500" zoomAndPan="magnify" viewBox="0 0 375 374.999991" height="500" preserveAspectRatio="xMidYMid meet" version="1.0"><defs><g/><clipPath id="6c44f9f1c6"><path d="M 75.480469 87 L 182 87 L 182 247 L 75.480469 247 Z M 75.480469 87 " clip-rule="nonzero"/></clipPath><clipPath id="fee4437713"><path d="M 97 225 L 183.480469 225 L 183.480469 290.160156 L 97 290.160156 Z M 97 225 " clip-rule="nonzero"/></clipPath></defs><rect x="-37.5" width="450" fill="#ffffff" y="-37.499999" height="449.999989" fill-opacity="1"/><g clip-path="url(#6c44f9f1c6)"><path fill="#000000" d="M 180.566406 168.953125 L 179.988281 168.664062 L 179.410156 168.4375 C 179.765625 167.546875 180.296875 161.761719 179.171875 160.773438 C 178.585938 160.261719 177.617188 159.683594 176.460938 158.996094 C 174.890625 158.0625 172.988281 156.929688 171.105469 155.394531 C 170.527344 154.925781 169.953125 154.417969 169.398438 153.894531 C 169.433594 155.363281 169.183594 156.839844 168.640625 158.085938 C 168.085938 159.371094 167.234375 160.40625 165.988281 161.460938 C 164.785156 162.476562 163.207031 163.511719 161.136719 164.828125 C 159.082031 166.136719 156.539062 167.726562 153.898438 169.191406 C 151.238281 170.667969 148.472656 172.027344 145.992188 172.859375 C 143.476562 173.703125 141.253906 174.011719 139.277344 174.003906 C 137.292969 173.992188 135.566406 173.660156 134.058594 173.226562 C 132.546875 172.792969 131.226562 172.246094 130.425781 171.695312 C 130.0625 171.445312 129.785156 171.179688 129.625 170.902344 C 129.386719 170.503906 129.367188 170.101562 129.605469 169.707031 C 129.71875 169.519531 129.894531 169.351562 130.132812 169.210938 C 131.117188 168.617188 133.613281 168.304688 136.089844 167.996094 C 136.867188 167.902344 137.644531 167.804688 138.355469 167.703125 C 138.273438 167.613281 138.203125 167.515625 138.140625 167.414062 C 137.792969 166.875 137.644531 166.203125 137.667969 165.550781 C 137.679688 165.152344 137.761719 164.753906 137.921875 164.382812 L 137.785156 164.421875 C 136.011719 164.941406 134.519531 166.179688 133.394531 167.117188 L 132.988281 167.457031 C 132.347656 167.980469 131.824219 168.363281 131.410156 168.566406 C 130.679688 168.929688 130.160156 168.855469 129.855469 168.238281 C 129.664062 167.863281 129.679688 167.179688 129.921875 166.441406 C 130.105469 165.886719 130.417969 165.253906 130.871094 164.671875 C 131.359375 164.042969 132 163.46875 132.835938 162.957031 C 133.644531 162.460938 134.640625 162.027344 135.847656 161.660156 C 137.136719 161.273438 138.679688 160.960938 140.269531 160.847656 C 141.625 160.75 143.019531 160.796875 144.324219 161.0625 C 145.796875 161.359375 147.109375 161.921875 148.328125 162.441406 C 149.40625 162.902344 150.40625 163.332031 151.304688 163.476562 C 152.164062 163.617188 152.96875 163.507812 153.636719 163.203125 C 154.316406 162.898438 154.859375 162.394531 155.183594 161.761719 L 155.289062 161.523438 C 155.523438 160.957031 155.589844 160.304688 155.414062 159.710938 C 155.246094 159.132812 154.832031 158.589844 154.105469 158.21875 L 153.820312 158.089844 C 152.804688 157.671875 151.296875 157.53125 149.394531 157.640625 C 147.386719 157.757812 144.960938 158.15625 142.21875 158.816406 C 140.300781 159.277344 138.167969 159.882812 136.039062 160.484375 C 132.207031 161.574219 128.386719 162.660156 125.511719 162.964844 C 123.613281 163.167969 122.105469 163.027344 121.191406 162.636719 C 120.71875 162.433594 120.375 162.15625 120.179688 161.816406 C 119.953125 161.417969 119.925781 160.976562 120.117188 160.5 C 120.335938 159.96875 120.867188 159.390625 121.75 158.800781 C 123.378906 157.714844 126.382812 156.457031 129.835938 155.378906 C 133.066406 154.371094 136.714844 153.511719 140.023438 153.085938 C 143.058594 152.691406 145.792969 152.664062 148.203125 152.640625 C 151.125 152.613281 153.566406 152.589844 155.417969 151.914062 C 157.027344 151.328125 158.242188 150.21875 159.136719 148.738281 C 160.0625 147.210938 160.652344 145.285156 160.996094 143.125 C 161.371094 140.742188 161.441406 138.078125 160.917969 135.511719 C 160.488281 133.410156 159.660156 131.367188 158.269531 129.601562 C 156.496094 127.351562 153.777344 125.5 151.195312 123.742188 C 149.191406 122.375 147.261719 121.0625 145.859375 119.625 C 145.234375 118.984375 144.710938 118.3125 144.308594 117.632812 C 143.597656 116.425781 143.269531 115.179688 143.394531 113.957031 C 143.519531 112.726562 144.101562 111.539062 145.203125 110.460938 C 145.730469 109.945312 146.382812 109.449219 147.167969 108.988281 L 147.679688 108.703125 C 141.296875 107.519531 134.382812 106.5625 129.292969 107.628906 C 126.277344 108.257812 123.890625 109.601562 122.253906 111.214844 C 120.464844 112.980469 119.578125 115.054688 119.75 116.847656 C 119.871094 118.054688 120.480469 119.148438 121.414062 120.054688 C 123.304688 120.894531 125.597656 121.335938 127.878906 121.335938 C 131.210938 121.335938 134.519531 120.394531 136.355469 119.875 C 136.832031 119.738281 137.210938 119.632812 137.503906 119.566406 C 138.148438 119.421875 138.539062 119.527344 138.652344 120.035156 C 138.664062 120.089844 138.667969 120.121094 138.667969 120.179688 C 138.667969 120.511719 137.808594 121.289062 136.425781 121.957031 C 135.238281 122.535156 133.59375 123.179688 131.808594 123.578125 C 130.777344 123.804688 129.695312 123.953125 128.621094 123.960938 C 126.109375 123.984375 123.644531 123.238281 121.785156 121.980469 C 121.390625 121.714844 121.023438 121.425781 120.6875 121.117188 C 120.480469 121.019531 120.277344 120.917969 120.078125 120.8125 C 118.03125 119.71875 116.507812 118.136719 116.011719 116.105469 C 115.496094 113.996094 116.109375 111.449219 117.617188 108.859375 C 119.085938 106.335938 121.417969 103.746094 124.378906 101.476562 C 125.019531 100.984375 125.691406 100.507812 126.382812 100.046875 C 124.617188 100.113281 122.820312 100.222656 121.054688 100.394531 C 116.582031 100.828125 112.269531 101.675781 109.097656 103.324219 C 106.191406 104.835938 104.238281 107.035156 103.113281 109.472656 C 101.824219 112.253906 101.601562 115.351562 102.253906 118.09375 L 102.328125 118.382812 C 103 119.402344 103.738281 120.324219 104.519531 121.144531 C 106.535156 123.273438 108.796875 124.753906 110.742188 125.691406 C 112.617188 126.589844 114.226562 126.988281 115.308594 127.257812 C 116.527344 127.558594 117.246094 127.742188 117.332031 128.464844 C 117.347656 128.617188 117.328125 128.769531 117.269531 128.917969 C 117.140625 129.234375 116.804688 129.570312 116.300781 129.824219 C 115.882812 130.039062 115.3125 130.21875 114.632812 130.296875 C 113.574219 130.421875 112.207031 130.304688 110.65625 129.6875 C 108.683594 128.902344 106.390625 127.285156 104.507812 125.074219 C 103.035156 123.347656 101.800781 121.246094 101.148438 118.894531 C 100.457031 117.816406 99.835938 116.636719 99.324219 115.34375 C 98.050781 112.132812 97.425781 108.242188 97.730469 104.46875 C 98.003906 101.078125 99.019531 97.769531 100.976562 95.109375 C 101.601562 94.261719 102.316406 93.484375 103.097656 92.769531 C 102.414062 92.84375 101.71875 92.941406 101.011719 93.066406 C 97.550781 93.683594 93.84375 95.015625 90.636719 96.832031 C 87.703125 98.492188 85.195312 100.554688 83.691406 102.839844 C 82.265625 105.003906 81.734375 107.386719 81.824219 109.695312 C 81.933594 112.417969 82.894531 115.039062 84.273438 117.101562 C 85.097656 118.335938 86.074219 119.367188 87.125 120.191406 C 88.824219 119.445312 90.59375 118.953125 92.234375 118.675781 C 95.097656 118.1875 97.621094 118.363281 98.722656 118.992188 C 99.121094 119.222656 99.378906 119.515625 99.511719 119.851562 C 99.691406 120.300781 99.632812 120.773438 99.386719 121.238281 C 99.183594 121.617188 98.847656 121.988281 98.410156 122.328125 C 97.417969 123.09375 95.835938 123.738281 94.089844 123.847656 C 92.183594 123.96875 90.074219 123.464844 88.097656 122.359375 C 87.71875 122.148438 87.34375 121.914062 86.976562 121.65625 C 86.578125 121.851562 86.179688 122.066406 85.792969 122.292969 C 83.410156 123.703125 81.394531 125.746094 79.894531 128.394531 C 78.453125 130.929688 77.488281 134.027344 77.121094 137.65625 C 76.757812 141.277344 76.988281 145.429688 77.613281 149.378906 C 78.28125 153.621094 79.410156 157.632812 80.734375 160.507812 C 81.308594 161.761719 81.925781 162.796875 82.5625 163.664062 C 82.363281 163.039062 82.175781 162.382812 82.007812 161.703125 C 81.316406 158.933594 80.914062 155.738281 80.878906 152.34375 C 80.839844 148.828125 81.195312 145.097656 81.871094 141.839844 C 82.519531 138.71875 83.46875 136.003906 84.65625 134.296875 C 86.378906 131.820312 88.515625 131.398438 90.539062 131.203125 C 90.753906 130.488281 91 129.847656 91.289062 129.304688 C 91.90625 128.117188 92.707031 127.363281 93.515625 126.929688 C 94.085938 126.625 94.667969 126.480469 95.195312 126.460938 C 95.75 126.441406 96.257812 126.554688 96.65625 126.765625 C 97.015625 126.953125 97.296875 127.21875 97.46875 127.539062 C 97.535156 127.664062 97.582031 127.792969 97.617188 127.929688 C 97.761719 128.542969 97.546875 129.246094 97.058594 129.90625 C 96.625 130.484375 95.964844 131.050781 95.15625 131.484375 C 94.644531 131.757812 94.070312 131.980469 93.460938 132.125 C 92.839844 132.269531 92.195312 132.332031 91.53125 132.390625 C 91.304688 133.324219 91.128906 134.371094 90.992188 135.480469 C 90.660156 138.269531 90.605469 141.429688 90.722656 144.242188 C 90.871094 147.710938 91.28125 150.675781 91.636719 153.214844 C 91.808594 154.460938 91.96875 155.605469 92.078125 156.675781 C 92.113281 157.042969 92.148438 157.394531 92.171875 157.738281 C 92.554688 157.644531 92.96875 157.570312 93.414062 157.519531 C 94.734375 157.378906 96.351562 157.472656 98.042969 157.742188 C 99.78125 158.015625 101.609375 158.484375 103.261719 159.078125 C 104.84375 159.640625 106.273438 160.328125 107.375 160.992188 C 108.613281 161.746094 109.46875 162.515625 109.71875 163.121094 C 109.773438 163.253906 109.808594 163.390625 109.816406 163.515625 C 109.851562 163.980469 109.644531 164.332031 109.222656 164.589844 C 108.945312 164.765625 108.554688 164.882812 108.078125 164.953125 C 107.878906 164.984375 107.660156 165.003906 107.421875 165.019531 C 108.695312 165.332031 109.878906 165.738281 110.761719 166.1875 C 111.738281 166.6875 112.378906 167.265625 112.65625 167.722656 C 112.792969 167.941406 112.863281 168.164062 112.871094 168.367188 C 112.878906 168.683594 112.757812 168.945312 112.503906 169.125 C 112.292969 169.273438 112.011719 169.34375 111.660156 169.3125 C 111.34375 169.28125 110.945312 169.167969 110.492188 169.007812 L 110.5 169.195312 C 110.515625 169.742188 110.367188 170.296875 109.972656 170.796875 C 109.75 171.089844 109.4375 171.363281 109.03125 171.601562 L 109.585938 171.542969 C 110.988281 171.398438 112.0625 171.285156 112.535156 171.457031 C 113.484375 171.796875 113.390625 172.335938 112.585938 173.074219 C 112.257812 173.375 111.707031 173.773438 111.019531 174.257812 C 110.339844 174.742188 109.523438 175.316406 108.660156 175.820312 C 107.75 176.347656 106.757812 176.832031 105.730469 177.121094 C 104.714844 177.410156 103.671875 177.511719 102.6875 177.453125 C 101.636719 177.394531 100.648438 177.15625 99.816406 176.777344 C 98.996094 176.402344 98.335938 175.894531 97.761719 175.320312 C 97.203125 174.765625 96.730469 174.15625 96.261719 173.542969 L 96.179688 173.4375 C 95.433594 172.46875 94.898438 171.441406 94.800781 171.476562 C 94.597656 171.554688 94.996094 171.785156 94.976562 172.613281 C 94.957031 173.457031 94.929688 174.636719 94.820312 176.164062 L 94.6875 177.800781 C 94.382812 181.375 93.964844 186.296875 94.949219 190.917969 C 95.515625 193.597656 96.558594 196.203125 97.714844 198.539062 C 98.882812 200.898438 100.167969 202.988281 101.210938 204.621094 C 102.226562 206.210938 103.015625 207.375 103.59375 208.140625 L 103.6875 208.273438 C 103.726562 207.664062 103.867188 206.945312 104.320312 206.246094 C 105.042969 205.148438 106.484375 204.246094 107.757812 203.453125 C 108.242188 203.152344 108.703125 202.863281 109.046875 202.613281 C 109.617188 202.203125 109.957031 201.847656 110.117188 201.515625 C 110.234375 201.273438 110.246094 201.019531 110.1875 200.746094 C 109.648438 200.554688 109.164062 200.367188 108.636719 200.03125 C 108.167969 199.730469 107.6875 199.324219 107.328125 198.777344 C 106.960938 198.210938 106.722656 197.503906 106.769531 196.640625 C 106.800781 196.003906 106.988281 195.292969 107.226562 194.625 C 107.578125 193.625 108.058594 192.699219 108.300781 192.277344 C 108.640625 191.699219 108.964844 191.554688 109.367188 191.785156 L 109.371094 191.789062 C 109.78125 192.023438 109.726562 192.371094 109.648438 192.910156 C 109.621094 193.113281 109.585938 193.371094 109.554688 193.683594 C 109.507812 194.210938 109.496094 194.847656 109.5625 195.507812 C 109.613281 196.027344 109.71875 196.566406 109.890625 197.070312 C 110.085938 197.644531 110.378906 198.191406 110.65625 198.703125 C 110.851562 199.066406 111.035156 199.410156 111.183594 199.753906 C 111.394531 199.832031 111.621094 199.921875 111.882812 200.03125 L 112.578125 200.339844 C 113.488281 200.753906 114.566406 201.246094 115.648438 201.339844 L 115.660156 201.339844 L 115.402344 201.121094 C 114.996094 200.773438 114.550781 200.414062 114.101562 200.054688 C 112.511719 198.769531 110.839844 197.421875 110.414062 196.367188 C 110.015625 195.390625 110.4375 194.707031 111.394531 194.242188 C 112.089844 193.90625 113.128906 193.703125 114.320312 193.582031 C 114.925781 193.523438 115.546875 193.488281 116.171875 193.449219 C 117.921875 193.34375 119.734375 193.234375 120.710938 192.703125 C 121.382812 192.335938 121.726562 191.683594 122.058594 191.050781 C 122.375 190.445312 122.683594 189.855469 123.253906 189.390625 C 123.851562 188.90625 124.679688 188.628906 125.578125 188.511719 C 126.570312 188.382812 127.660156 188.449219 128.613281 188.636719 C 129.519531 188.816406 130.328125 189.113281 130.996094 189.554688 C 131.691406 190.011719 132.234375 190.617188 132.589844 191.402344 C 132.949219 192.199219 133.109375 193.1875 133.007812 194.152344 C 132.917969 195.042969 132.601562 195.917969 132.023438 196.632812 C 131.429688 197.363281 130.570312 197.894531 129.710938 198.28125 C 128.882812 198.652344 128.050781 198.886719 127.46875 199.03125 C 126.84375 199.183594 126.460938 199.238281 126.160156 199.222656 C 125.777344 199.199219 125.570312 199.089844 125.289062 198.925781 L 125.246094 198.898438 C 124.917969 198.707031 124.414062 198.410156 123.460938 198.566406 C 122.9375 198.652344 122.28125 198.863281 121.667969 199.109375 C 121.113281 199.332031 120.605469 199.578125 120.265625 199.78125 C 120.613281 200.050781 120.789062 200.398438 120.636719 200.855469 C 120.539062 201.15625 120.257812 201.457031 119.710938 201.746094 C 119.445312 201.882812 119.097656 202.035156 118.691406 202.171875 C 119.125 202.425781 119.535156 202.550781 119.984375 202.496094 C 120.570312 202.425781 121.324219 202.066406 122.214844 201.644531 C 123.335938 201.113281 124.65625 200.484375 126.273438 200.105469 C 127.765625 199.753906 129.492188 199.625 131.296875 199.625 C 133.09375 199.621094 134.9375 199.742188 136.699219 199.886719 C 138.46875 200.035156 140.171875 200.210938 141.6875 200.472656 C 143.226562 200.738281 144.578125 201.097656 145.609375 201.605469 C 146.644531 202.109375 147.363281 202.769531 147.785156 203.449219 C 148.308594 204.285156 148.398438 205.175781 148.101562 205.914062 C 147.820312 206.617188 147.214844 207.152344 146.078125 207.496094 C 145.09375 207.792969 143.664062 207.953125 141.597656 207.960938 C 140 207.96875 138.035156 207.890625 136 207.804688 C 132.894531 207.675781 129.621094 207.539062 127.328125 207.707031 C 124.925781 207.875 123.609375 208.386719 122.53125 208.804688 C 121.898438 209.046875 121.339844 209.265625 120.6875 209.382812 C 119.832031 209.539062 118.886719 209.511719 117.933594 209.484375 C 116.921875 209.457031 115.898438 209.425781 115.0625 209.632812 C 114.441406 209.785156 113.894531 210.074219 113.425781 210.410156 C 112.742188 210.902344 112.238281 211.484375 111.945312 211.886719 C 111.878906 211.972656 111.535156 211.707031 111.675781 211.851562 C 111.75 211.921875 112.128906 212.011719 112.882812 212.152344 C 113.753906 212.3125 115.027344 212.507812 116.703125 212.566406 C 118.386719 212.621094 120.476562 212.535156 122.96875 212.128906 C 125.261719 211.757812 127.910156 211.109375 130.433594 210.496094 C 133.472656 209.753906 136.335938 209.054688 138.25 208.914062 C 139.421875 208.828125 140.285156 208.949219 140.835938 209.222656 C 141.261719 209.4375 141.535156 209.738281 141.652344 210.117188 C 141.765625 210.480469 141.722656 210.882812 141.527344 211.300781 C 141.238281 211.921875 140.570312 212.628906 139.542969 213.347656 C 138.109375 214.351562 135.910156 215.4375 133.496094 216.367188 C 131.15625 217.265625 128.601562 218.03125 126.332031 218.441406 C 124.007812 218.867188 121.972656 218.925781 120.164062 218.738281 C 118.34375 218.546875 116.757812 218.105469 115.335938 217.527344 C 113.722656 216.871094 112.316406 216.035156 111.101562 215.308594 C 110.238281 214.796875 109.476562 214.34375 108.839844 214.074219 C 108.445312 213.90625 108.101562 213.8125 107.871094 213.824219 C 107.832031 213.824219 107.832031 213.800781 107.824219 213.8125 C 107.816406 213.820312 107.816406 213.867188 107.820312 213.96875 C 107.839844 214.351562 108.050781 214.957031 108.515625 215.859375 C 109.355469 217.488281 110.980469 219.921875 112.894531 222.308594 C 114.492188 224.308594 116.285156 226.269531 117.980469 227.695312 C 119.59375 229.054688 121.117188 229.917969 122.324219 230.367188 C 122.960938 230.601562 123.492188 230.714844 123.878906 230.714844 C 124.074219 230.71875 124.199219 230.707031 124.238281 230.6875 C 124.253906 230.316406 123.625 229.480469 122.742188 228.496094 C 121.734375 227.363281 120.425781 226.105469 119.296875 225.027344 L 119.144531 224.886719 C 117.78125 223.585938 116.6875 222.542969 116.203125 221.734375 C 115.707031 220.90625 115.738281 220.257812 116.496094 219.808594 C 117.171875 219.402344 118.578125 219.363281 120.320312 219.316406 C 121.597656 219.28125 123.070312 219.242188 124.492188 219.0625 C 125.851562 218.886719 127.210938 218.578125 128.386719 218.3125 C 130.125 217.917969 131.492188 217.605469 132.207031 217.941406 C 133.359375 218.484375 132.847656 219.726562 132.144531 221.429688 C 131.871094 222.09375 131.5625 222.839844 131.316406 223.621094 L 131.273438 223.757812 C 130.933594 224.902344 130.726562 226.128906 130.855469 227.121094 C 130.964844 227.96875 131.332031 228.640625 132.109375 228.886719 L 132.136719 228.894531 C 133.191406 229.210938 134.925781 228.902344 136.992188 227.785156 C 138.777344 226.820312 140.777344 225.253906 142.765625 222.980469 C 145.792969 219.519531 148.8125 214.398438 151.40625 210 C 152.625 207.933594 153.75 206.023438 154.765625 204.480469 C 156.363281 202.054688 157.628906 200.640625 158.769531 199.730469 C 159.945312 198.800781 160.96875 198.40625 162.070312 198.015625 C 162.78125 197.765625 163.664062 197.472656 164.558594 197.175781 C 165.957031 196.707031 167.402344 196.230469 168.753906 195.703125 C 169.773438 195.3125 170.734375 194.894531 171.636719 193.933594 C 172.574219 192.941406 173.488281 191.351562 174.402344 188.605469 C 175.703125 184.710938 176.992188 178.519531 177.941406 173.945312 C 178.367188 171.882812 178.730469 170.148438 178.992188 169.097656 C 179.324219 167.78125 179.722656 167.21875 180.246094 167.347656 C 181.007812 167.535156 180.914062 170.753906 180.757812 176.273438 L 180.707031 178.039062 C 180.476562 186.199219 180.128906 198.5625 177.722656 206.632812 C 175.523438 214.007812 171.65625 217.769531 167.847656 221.472656 C 167.359375 221.945312 166.871094 222.421875 166.398438 222.894531 C 165.390625 223.898438 164.410156 224.925781 163.410156 225.96875 C 160.214844 229.308594 156.851562 232.832031 152.128906 236.164062 C 148.929688 238.421875 145.109375 240.59375 141.3125 242.320312 C 137.699219 243.957031 134.09375 245.199219 131.039062 245.722656 C 127.859375 246.273438 125.269531 246.054688 123.050781 245.410156 C 120.832031 244.765625 119 243.710938 117.308594 242.582031 C 115.632812 241.464844 114.078125 240.261719 112.558594 238.691406 C 111.050781 237.128906 109.585938 235.207031 108.097656 232.652344 C 106.753906 230.355469 105.382812 227.523438 104.109375 224.621094 C 102.589844 221.152344 101.21875 217.582031 100.238281 214.710938 C 99.332031 212.0625 98.75 209.996094 98.367188 208.363281 C 97.984375 206.722656 97.804688 205.503906 97.707031 204.5625 C 97.527344 202.828125 97.628906 202.042969 97.75 201.34375 C 97.355469 200.628906 96.957031 199.882812 96.574219 199.105469 C 95.375 196.683594 94.296875 193.980469 93.703125 191.1875 C 92.683594 186.375 93.105469 181.351562 93.417969 177.699219 L 93.546875 176.078125 C 93.664062 174.523438 93.6875 173.398438 93.707031 172.59375 C 93.738281 171.167969 93.753906 170.507812 94.359375 170.289062 C 95.132812 170 96.144531 171.320312 97.179688 172.664062 L 97.261719 172.769531 C 97.703125 173.347656 98.152344 173.925781 98.652344 174.425781 C 99.132812 174.902344 99.675781 175.324219 100.339844 175.628906 C 101.03125 175.941406 101.863281 176.140625 102.753906 176.191406 C 103.605469 176.242188 104.507812 176.152344 105.386719 175.90625 C 106.300781 175.644531 107.195312 175.210938 108.019531 174.730469 C 108.886719 174.21875 109.648438 173.679688 110.285156 173.230469 L 111.050781 172.679688 L 109.714844 172.8125 C 109.265625 172.859375 108.78125 172.910156 108.160156 172.964844 C 107.042969 173.066406 105.835938 173.144531 104.652344 173.171875 C 103.636719 173.195312 102.644531 173.183594 101.75 173.113281 C 100.742188 173.039062 99.828125 172.886719 99.054688 172.609375 C 98.222656 172.308594 97.546875 171.859375 97.082031 171.191406 C 96.910156 170.945312 96.769531 170.671875 96.660156 170.382812 C 96.492188 170.414062 96.328125 170.4375 96.164062 170.445312 C 95.496094 170.476562 94.878906 170.292969 94.214844 169.832031 C 93.582031 169.390625 92.886719 168.671875 92.363281 167.890625 C 91.890625 167.175781 91.550781 166.398438 91.507812 165.695312 L 91.503906 165.617188 C 91.480469 164.8125 91.824219 164.136719 92.554688 163.640625 C 93.183594 163.21875 94.113281 162.949219 95.355469 162.875 L 95.699219 162.859375 C 97.351562 162.8125 99.515625 163.078125 101.609375 163.335938 C 102.804688 163.480469 103.976562 163.625 104.980469 163.703125 C 106.199219 163.796875 107.199219 163.800781 107.890625 163.699219 C 108.167969 163.660156 108.378906 163.605469 108.511719 163.539062 C 108.3125 163.179688 107.664062 162.660156 106.71875 162.085938 C 105.683594 161.464844 104.335938 160.816406 102.832031 160.277344 C 101.253906 159.710938 99.507812 159.261719 97.84375 159 C 96.261719 158.75 94.757812 158.660156 93.546875 158.789062 C 93.0625 158.839844 92.625 158.925781 92.242188 159.042969 C 92.261719 159.746094 92.253906 160.378906 92.214844 160.929688 C 92.128906 162.152344 91.867188 163.03125 91.425781 163.421875 C 91.242188 163.585938 91.03125 163.675781 90.8125 163.703125 C 90.460938 163.742188 90.109375 163.617188 89.800781 163.375 C 89.554688 163.179688 89.324219 162.902344 89.148438 162.574219 C 88.878906 162.082031 88.71875 161.460938 88.78125 160.847656 C 88.867188 159.996094 89.367188 159.175781 90.285156 158.554688 C 90.480469 158.421875 90.695312 158.300781 90.929688 158.1875 C 90.902344 157.746094 90.863281 157.289062 90.816406 156.808594 C 90.710938 155.769531 90.550781 154.628906 90.378906 153.394531 C 90.019531 150.828125 89.605469 147.839844 89.457031 144.296875 C 89.332031 141.417969 89.390625 138.183594 89.730469 135.335938 C 89.851562 134.347656 90.003906 133.398438 90.199219 132.523438 C 88.597656 132.722656 86.972656 133.195312 85.699219 135.023438 C 84.609375 136.59375 83.726562 139.140625 83.113281 142.101562 C 82.453125 145.28125 82.109375 148.914062 82.144531 152.335938 C 82.179688 155.625 82.570312 158.71875 83.238281 161.40625 C 83.6875 163.207031 84.257812 164.820312 84.929688 166.175781 C 86.082031 167.113281 87.222656 167.722656 88.246094 168.269531 L 88.914062 168.628906 C 90.320312 169.398438 91.460938 170.171875 92.082031 170.773438 C 92.328125 171.015625 92.515625 171.25 92.617188 171.464844 C 92.808594 171.859375 92.777344 172.21875 92.5 172.519531 C 92.398438 172.628906 92.265625 172.714844 92.101562 172.773438 C 91.5 172.992188 89.925781 172.808594 88.25 171.8125 C 87.164062 171.167969 86 170.183594 84.980469 168.746094 C 84.609375 168.222656 84.257812 167.640625 83.929688 167.003906 C 82.425781 165.738281 80.90625 163.925781 79.582031 161.046875 C 78.210938 158.070312 77.050781 153.941406 76.363281 149.582031 C 75.722656 145.527344 75.484375 141.265625 75.863281 137.535156 C 76.246094 133.722656 77.269531 130.457031 78.792969 127.769531 C 80.402344 124.925781 82.578125 122.726562 85.148438 121.203125 C 85.386719 121.0625 85.625 120.929688 85.867188 120.800781 C 84.898438 119.96875 84 118.96875 83.222656 117.8125 C 81.722656 115.566406 80.671875 112.714844 80.558594 109.75 C 80.457031 107.191406 81.050781 104.546875 82.632812 102.144531 C 84.257812 99.679688 86.917969 97.480469 90.011719 95.730469 C 93.347656 93.839844 97.199219 92.457031 100.792969 91.816406 C 102.191406 91.566406 103.546875 91.429688 104.851562 91.359375 C 105.890625 90.613281 106.996094 89.964844 108.113281 89.414062 C 111.539062 87.726562 115.109375 86.960938 117.257812 87.113281 C 118.503906 87.199219 119.347656 87.597656 119.816406 88.144531 C 120.132812 88.503906 120.285156 88.929688 120.292969 89.375 C 120.296875 89.792969 120.171875 90.21875 119.921875 90.621094 C 119.421875 91.425781 118.40625 92.160156 116.996094 92.507812 C 115.449219 92.886719 113.449219 92.792969 111.078125 92.6875 C 109.332031 92.609375 107.378906 92.523438 105.289062 92.613281 C 104.042969 93.542969 102.914062 94.625 102.003906 95.859375 C 100.195312 98.316406 99.253906 101.398438 99 104.570312 C 98.710938 108.15625 99.300781 111.84375 100.503906 114.875 L 100.628906 115.183594 C 100.609375 113.09375 101.03125 110.945312 101.960938 108.941406 C 103.199219 106.261719 105.335938 103.847656 108.511719 102.195312 C 111.84375 100.460938 116.316406 99.578125 120.9375 99.128906 C 123.492188 98.878906 126.082031 98.765625 128.539062 98.710938 C 130.3125 97.683594 132.167969 96.769531 133.992188 96.003906 C 137.558594 94.507812 141.027344 93.574219 143.542969 93.457031 C 145.359375 93.371094 146.710938 93.710938 147.625 94.25 C 148.230469 94.609375 148.65625 95.0625 148.902344 95.546875 C 149.171875 96.066406 149.238281 96.621094 149.121094 97.148438 C 149.003906 97.652344 148.714844 98.121094 148.265625 98.5 C 146.558594 99.9375 142.425781 99.9375 135.246094 99.933594 L 134.113281 99.933594 C 132.496094 99.9375 130.730469 99.941406 128.894531 99.976562 C 127.578125 100.75 126.316406 101.59375 125.152344 102.480469 C 122.324219 104.652344 120.105469 107.109375 118.71875 109.496094 C 117.371094 111.804688 116.8125 114.027344 117.246094 115.804688 C 117.488281 116.78125 118.039062 117.640625 118.8125 118.375 C 118.648438 117.925781 118.539062 117.453125 118.492188 116.96875 C 118.28125 114.800781 119.300781 112.34375 121.367188 110.304688 C 123.164062 108.535156 125.765625 107.0625 129.039062 106.378906 C 134.835938 105.167969 142.722656 106.4375 149.679688 107.777344 C 151.652344 106.992188 153.988281 106.347656 156.351562 105.894531 C 160.003906 105.191406 163.746094 104.941406 166.3125 105.308594 C 168.242188 105.582031 169.550781 106.21875 170.304688 106.964844 C 170.746094 107.398438 171.007812 107.882812 171.105469 108.367188 C 171.203125 108.882812 171.121094 109.394531 170.867188 109.855469 C 170.550781 110.429688 169.972656 110.917969 169.160156 111.226562 C 167.75 111.761719 165.59375 111.757812 162.808594 111.425781 C 160.09375 111.105469 156.761719 110.46875 152.941406 109.714844 L 149.800781 109.097656 C 149.070312 109.40625 148.398438 109.734375 147.8125 110.078125 C 147.125 110.484375 146.550781 110.914062 146.089844 111.363281 C 145.214844 112.21875 144.753906 113.140625 144.660156 114.078125 C 144.5625 115.023438 144.832031 116.007812 145.40625 116.984375 C 145.75 117.574219 146.210938 118.160156 146.773438 118.734375 C 148.082031 120.078125 149.960938 121.355469 151.914062 122.6875 C 154.574219 124.5 157.378906 126.410156 159.269531 128.808594 C 160.792969 130.742188 161.699219 132.96875 162.164062 135.253906 C 162.71875 137.980469 162.644531 140.796875 162.25 143.3125 C 161.882812 145.636719 161.242188 147.71875 160.230469 149.390625 C 159.1875 151.113281 157.761719 152.410156 155.855469 153.105469 C 153.804688 153.851562 151.261719 153.875 148.21875 153.90625 C 145.84375 153.929688 143.148438 153.953125 140.1875 154.335938 C 136.96875 154.753906 133.394531 155.597656 130.222656 156.589844 C 126.878906 157.632812 124 158.832031 122.460938 159.859375 C 121.796875 160.300781 121.421875 160.679688 121.296875 160.976562 C 121.261719 161.0625 121.257812 161.132812 121.28125 161.175781 C 121.339844 161.273438 121.480469 161.371094 121.695312 161.464844 C 122.421875 161.773438 123.703125 161.875 125.382812 161.695312 C 128.148438 161.402344 131.917969 160.332031 135.703125 159.257812 C 137.808594 158.660156 139.921875 158.058594 141.933594 157.578125 C 144.75 156.898438 147.253906 156.488281 149.332031 156.367188 C 151.417969 156.246094 153.109375 156.417969 154.304688 156.910156 C 154.433594 156.960938 154.5625 157.019531 154.691406 157.085938 C 155.761719 157.636719 156.375 158.457031 156.636719 159.351562 C 156.898438 160.230469 156.804688 161.179688 156.46875 162.003906 C 156.421875 162.109375 156.371094 162.222656 156.316406 162.332031 C 155.855469 163.230469 155.101562 163.9375 154.164062 164.359375 C 153.277344 164.761719 152.222656 164.910156 151.105469 164.726562 C 150.054688 164.554688 148.984375 164.097656 147.835938 163.605469 C 146.671875 163.109375 145.414062 162.570312 144.082031 162.300781 C 142.898438 162.0625 141.617188 162.019531 140.359375 162.109375 C 138.871094 162.214844 137.421875 162.507812 136.210938 162.875 C 135.109375 163.207031 134.214844 163.597656 133.496094 164.035156 C 132.800781 164.460938 132.269531 164.933594 131.875 165.441406 C 131.519531 165.898438 131.273438 166.394531 131.128906 166.832031 C 131.066406 167.03125 131.019531 167.207031 130.996094 167.34375 C 131.292969 167.167969 131.691406 166.867188 132.183594 166.46875 L 132.582031 166.136719 C 133.796875 165.128906 135.402344 163.792969 137.425781 163.195312 C 138.085938 163.003906 138.785156 162.890625 139.492188 162.839844 C 139.691406 162.75 139.910156 162.671875 140.152344 162.605469 C 140.960938 162.382812 142.019531 162.3125 142.996094 162.378906 C 143.988281 162.445312 144.929688 162.660156 145.488281 163.007812 C 145.640625 163.101562 145.769531 163.203125 145.875 163.3125 C 145.972656 163.414062 146.050781 163.519531 146.113281 163.632812 C 146.511719 163.742188 146.867188 163.859375 147.171875 163.980469 C 148.042969 164.328125 148.539062 164.792969 148.46875 165.386719 L 148.457031 165.46875 C 148.355469 165.988281 147.746094 166.410156 146.890625 166.773438 C 146.203125 167.066406 145.3125 167.355469 144.433594 167.636719 C 143.550781 167.917969 142.675781 168.191406 141.890625 168.359375 C 141.566406 168.429688 141.257812 168.480469 140.957031 168.511719 C 140.53125 168.613281 140.0625 168.707031 139.546875 168.796875 C 138.546875 168.964844 137.398438 169.109375 136.25 169.253906 C 133.902344 169.546875 131.535156 169.839844 130.785156 170.289062 L 130.757812 170.308594 C 130.832031 170.402344 130.96875 170.515625 131.144531 170.636719 C 131.828125 171.109375 133.019531 171.59375 134.410156 171.996094 C 135.832031 172.40625 137.445312 172.71875 139.285156 172.726562 C 141.128906 172.738281 143.21875 172.445312 145.589844 171.648438 C 147.992188 170.84375 150.6875 169.519531 153.285156 168.074219 C 155.90625 166.621094 158.425781 165.046875 160.457031 163.75 C 162.476562 162.464844 164.015625 161.457031 165.167969 160.484375 C 166.269531 159.554688 167.011719 158.660156 167.476562 157.578125 C 167.953125 156.476562 168.171875 155.164062 168.128906 153.847656 C 168.113281 153.390625 168.066406 152.9375 167.988281 152.492188 C 167.605469 152.09375 167.242188 151.699219 166.898438 151.3125 C 165.445312 149.671875 164.375 148.171875 164.128906 147.457031 C 164.007812 147.121094 164.019531 146.835938 164.136719 146.613281 C 164.324219 146.253906 164.644531 146.128906 165.0625 146.210938 C 165.246094 146.25 165.46875 146.347656 165.710938 146.496094 C 166.476562 146.96875 167.628906 148.117188 168.367188 149.574219 C 168.726562 150.28125 168.992188 151.066406 169.167969 151.878906 C 170.027344 152.757812 170.960938 153.628906 171.90625 154.398438 C 173.710938 155.867188 175.574219 156.976562 177.109375 157.890625 C 178.316406 158.609375 179.328125 159.210938 180.007812 159.804688 C 181.8125 161.382812 181.113281 167.585938 180.589844 168.894531 L 180.570312 168.941406 Z M 140.738281 167.265625 C 141.488281 167.085938 142.09375 166.886719 142.589844 166.671875 C 143.328125 166.347656 143.832031 165.984375 144.238281 165.59375 C 144.488281 165.359375 144.699219 165.113281 144.84375 164.875 C 144.890625 164.800781 144.929688 164.734375 144.957031 164.667969 L 144.226562 164.511719 C 143.222656 164.316406 142.097656 164.144531 140.980469 164.101562 C 140.59375 164.085938 140.207031 164.085938 139.824219 164.105469 C 139.621094 164.21875 139.457031 164.355469 139.332031 164.5 C 139.0625 164.8125 138.949219 165.199219 138.933594 165.597656 C 138.917969 166.003906 139.003906 166.414062 139.207031 166.730469 C 139.363281 166.96875 139.59375 167.15625 139.910156 167.234375 C 140.140625 167.289062 140.421875 167.296875 140.738281 167.269531 Z M 145.925781 165.535156 C 145.855469 165.65625 145.773438 165.773438 145.683594 165.890625 C 145.933594 165.796875 146.175781 165.707031 146.394531 165.613281 C 146.875 165.410156 147.203125 165.261719 147.207031 165.230469 C 147.222656 165.144531 146.996094 165.289062 146.699219 165.167969 C 146.546875 165.109375 146.378906 165.046875 146.191406 164.992188 C 146.128906 165.175781 146.039062 165.359375 145.929688 165.539062 Z M 156.589844 107.152344 C 155.050781 107.445312 153.527344 107.820312 152.121094 108.265625 L 153.183594 108.472656 C 156.984375 109.226562 160.292969 109.855469 162.957031 110.171875 C 165.546875 110.484375 167.511719 110.5 168.707031 110.046875 C 169.226562 109.847656 169.578125 109.566406 169.753906 109.253906 C 169.859375 109.054688 169.898438 108.839844 169.855469 108.625 C 169.804688 108.378906 169.660156 108.121094 169.410156 107.875 C 168.832031 107.300781 167.765625 106.808594 166.128906 106.574219 C 163.703125 106.230469 160.113281 106.476562 156.585938 107.152344 Z M 126.953125 122.589844 C 127.496094 122.664062 128.054688 122.703125 128.613281 122.695312 C 129.589844 122.691406 130.585938 122.550781 131.535156 122.339844 L 132.070312 122.214844 C 130.753906 122.445312 129.324219 122.609375 127.882812 122.609375 C 127.574219 122.609375 127.261719 122.601562 126.953125 122.585938 Z M 134.480469 97.183594 C 133.414062 97.628906 132.332031 98.132812 131.265625 98.675781 L 135.246094 98.671875 C 142.132812 98.675781 146.097656 98.675781 147.453125 97.535156 C 147.683594 97.34375 147.828125 97.113281 147.882812 96.871094 C 147.9375 96.636719 147.902344 96.378906 147.777344 96.132812 C 147.632812 95.851562 147.367188 95.582031 146.976562 95.351562 C 146.257812 94.925781 145.144531 94.660156 143.597656 94.730469 C 141.230469 94.839844 137.921875 95.738281 134.480469 97.183594 Z M 104.363281 122.785156 C 104.710938 123.300781 105.085938 123.789062 105.476562 124.25 C 107.226562 126.304688 109.332031 127.796875 111.128906 128.515625 C 112.457031 129.042969 113.605469 129.144531 114.496094 129.039062 C 115.015625 128.976562 115.4375 128.847656 115.738281 128.695312 C 115.839844 128.644531 115.921875 128.597656 115.984375 128.554688 C 115.832031 128.546875 115.503906 128.621094 115.015625 128.5 C 113.878906 128.21875 112.207031 127.800781 110.203125 126.839844 C 108.378906 125.964844 106.292969 124.636719 104.363281 122.789062 Z M 108.679688 90.558594 C 108.207031 90.789062 107.738281 91.039062 107.273438 91.308594 C 108.644531 91.3125 109.9375 91.371094 111.132812 91.425781 C 113.40625 91.527344 115.332031 91.613281 116.703125 91.277344 C 117.769531 91.019531 118.507812 90.507812 118.84375 89.960938 C 118.964844 89.761719 119.027344 89.570312 119.027344 89.394531 C 119.027344 89.25 118.972656 89.105469 118.863281 88.976562 C 118.601562 88.671875 118.054688 88.445312 117.175781 88.382812 C 115.214844 88.246094 111.90625 88.96875 108.679688 90.558594 Z M 88.375 121.058594 L 88.714844 121.253906 C 90.480469 122.242188 92.34375 122.691406 94.011719 122.585938 C 95.496094 122.492188 96.820312 121.960938 97.636719 121.328125 C 97.9375 121.097656 98.15625 120.863281 98.269531 120.644531 C 98.339844 120.511719 98.367188 120.398438 98.335938 120.324219 C 98.3125 120.253906 98.230469 120.179688 98.097656 120.105469 C 97.222656 119.601562 95.03125 119.496094 92.445312 119.933594 C 91.136719 120.15625 89.738281 120.523438 88.375 121.054688 Z M 87.65625 169.390625 L 86.699219 168.875 C 87.421875 169.691406 88.183594 170.296875 88.902344 170.722656 C 89.792969 171.253906 90.578125 171.519531 91.105469 171.597656 C 90.546875 171.085938 89.550781 170.425781 88.3125 169.75 Z M 91.914062 131.085938 C 92.359375 131.039062 92.785156 130.984375 93.175781 130.890625 C 93.683594 130.773438 94.148438 130.589844 94.5625 130.371094 C 95.203125 130.027344 95.714844 129.59375 96.039062 129.15625 C 96.308594 128.796875 96.4375 128.460938 96.378906 128.222656 L 96.347656 128.136719 C 96.300781 128.046875 96.203125 127.964844 96.074219 127.894531 C 95.859375 127.785156 95.574219 127.722656 95.246094 127.734375 C 94.894531 127.746094 94.507812 127.847656 94.117188 128.054688 C 93.511719 128.375 92.90625 128.960938 92.414062 129.894531 C 92.230469 130.246094 92.066406 130.644531 91.914062 131.082031 Z M 90.953125 160.84375 C 90.976562 160.476562 90.988281 160.066406 90.988281 159.621094 C 90.410156 160.015625 90.097656 160.496094 90.046875 160.976562 C 90.011719 161.320312 90.109375 161.679688 90.265625 161.972656 C 90.359375 162.144531 90.476562 162.289062 90.589844 162.378906 L 90.640625 162.417969 C 90.789062 162.207031 90.894531 161.65625 90.953125 160.84375 Z M 100.824219 164.523438 C 98.96875 164.300781 97.113281 164.09375 95.738281 164.132812 L 95.433594 164.148438 C 94.429688 164.207031 93.714844 164.402344 93.269531 164.699219 C 92.929688 164.929688 92.769531 165.230469 92.777344 165.578125 L 92.777344 165.628906 C 92.804688 166.085938 93.0625 166.648438 93.421875 167.1875 C 93.855469 167.835938 94.429688 168.429688 94.945312 168.789062 C 95.363281 169.078125 95.730469 169.195312 96.109375 169.179688 C 96.203125 169.175781 96.304688 169.164062 96.402344 169.144531 C 96.398438 169.011719 96.394531 168.882812 96.398438 168.753906 C 96.417969 167.910156 96.683594 167.050781 97.214844 166.355469 C 97.75 165.660156 98.546875 165.140625 99.5625 164.816406 C 99.949219 164.691406 100.371094 164.59375 100.824219 164.523438 Z M 98.175781 169.828125 L 97.863281 169.976562 C 97.933594 170.15625 98.023438 170.324219 98.128906 170.472656 C 98.429688 170.90625 98.894531 171.210938 99.488281 171.421875 C 100.136719 171.65625 100.9375 171.785156 101.851562 171.851562 C 102.242188 171.882812 102.648438 171.902344 103.066406 171.910156 C 102.550781 171.554688 102.207031 171.054688 102.03125 170.503906 C 101.820312 169.832031 101.867188 169.078125 102.160156 168.410156 L 102.179688 168.371094 C 102.28125 168.144531 102.414062 167.933594 102.574219 167.734375 C 101.425781 168.109375 100.304688 168.707031 99.332031 169.230469 C 98.914062 169.453125 98.519531 169.664062 98.175781 169.832031 Z M 97.671875 168.664062 C 98.011719 168.496094 98.363281 168.304688 98.738281 168.105469 C 99.941406 167.460938 101.359375 166.703125 102.863281 166.328125 C 103.824219 166.089844 104.8125 166.015625 105.71875 166.058594 C 105.996094 166.070312 106.269531 166.09375 106.53125 166.128906 C 105.339844 165.871094 104.101562 165.707031 102.996094 165.671875 C 101.808594 165.640625 100.78125 165.757812 99.953125 166.023438 C 99.183594 166.273438 98.597656 166.644531 98.222656 167.132812 C 97.886719 167.566406 97.707031 168.113281 97.671875 168.660156 Z M 108.703125 166.722656 C 109.085938 166.902344 109.398438 167.113281 109.648438 167.34375 L 109.96875 167.464844 C 110.371094 167.621094 110.746094 167.761719 111.0625 167.871094 C 110.835938 167.695312 110.542969 167.511719 110.1875 167.328125 C 109.765625 167.117188 109.261719 166.910156 108.707031 166.722656 Z M 109.234375 169.234375 C 109.226562 168.960938 109.136719 168.683594 108.933594 168.433594 C 108.070312 168.109375 107.140625 167.792969 106.359375 167.683594 C 105.59375 167.578125 104.945312 167.671875 104.433594 167.886719 C 103.910156 168.113281 103.53125 168.476562 103.335938 168.902344 L 103.320312 168.933594 C 103.152344 169.3125 103.125 169.738281 103.246094 170.117188 C 103.359375 170.484375 103.617188 170.808594 104.015625 170.992188 L 104.050781 171.007812 C 104.5 171.207031 105.128906 171.261719 105.789062 171.214844 C 106.589844 171.164062 107.410156 170.96875 108.003906 170.707031 C 108.46875 170.507812 108.78125 170.273438 108.972656 170.023438 C 109.167969 169.777344 109.242188 169.503906 109.234375 169.234375 Z M 100.144531 205.3125 C 99.753906 204.699219 99.328125 204.027344 98.890625 203.300781 C 98.902344 203.621094 98.929688 203.996094 98.976562 204.4375 C 99.066406 205.324219 99.238281 206.484375 99.609375 208.078125 C 99.984375 209.679688 100.554688 211.703125 101.445312 214.304688 C 102.421875 217.152344 103.773438 220.6875 105.277344 224.117188 C 106.523438 226.960938 107.875 229.746094 109.199219 232.015625 C 110.640625 234.484375 112.039062 236.328125 113.476562 237.816406 C 114.910156 239.296875 116.398438 240.449219 118.019531 241.527344 C 119.625 242.601562 121.355469 243.601562 123.402344 244.195312 C 125.453125 244.789062 127.851562 244.988281 130.828125 244.476562 C 133.765625 243.96875 137.265625 242.761719 140.789062 241.164062 C 144.519531 239.472656 148.265625 237.339844 151.398438 235.128906 C 156.039062 231.847656 159.351562 228.382812 162.496094 225.097656 C 163.503906 224.039062 164.496094 223 165.503906 221.996094 C 165.988281 221.511719 166.476562 221.035156 166.964844 220.5625 C 170.65625 216.972656 174.402344 213.328125 176.507812 206.269531 C 178.867188 198.351562 179.214844 186.097656 179.441406 178.007812 L 179.492188 176.238281 C 179.550781 174.242188 179.675781 172.605469 179.785156 171.367188 L 179.1875 174.207031 C 178.230469 178.804688 176.9375 185.027344 175.609375 189.007812 C 174.628906 191.953125 173.617188 193.691406 172.566406 194.808594 C 171.480469 195.960938 170.378906 196.441406 169.214844 196.890625 C 167.847656 197.421875 166.382812 197.90625 164.960938 198.382812 C 164.15625 198.652344 163.367188 198.910156 162.496094 199.21875 C 161.5 199.570312 160.582031 199.921875 159.566406 200.730469 C 158.515625 201.5625 157.339844 202.886719 155.828125 205.179688 C 154.859375 206.652344 153.730469 208.570312 152.503906 210.652344 C 149.886719 215.089844 146.835938 220.261719 143.726562 223.816406 C 141.625 226.21875 139.5 227.878906 137.59375 228.910156 C 135.21875 230.195312 133.125 230.523438 131.777344 230.117188 L 131.742188 230.109375 C 130.398438 229.6875 129.769531 228.617188 129.601562 227.285156 C 129.449219 226.09375 129.675781 224.6875 130.0625 223.398438 L 130.105469 223.253906 C 130.367188 222.410156 130.6875 221.632812 130.972656 220.949219 C 131.410156 219.890625 131.726562 219.121094 131.671875 219.097656 C 131.351562 218.945312 130.167969 219.214844 128.664062 219.554688 C 127.472656 219.828125 126.089844 220.140625 124.652344 220.324219 C 123.164062 220.511719 121.65625 220.554688 120.351562 220.589844 C 118.796875 220.632812 117.539062 220.664062 117.148438 220.898438 C 117.128906 220.910156 117.214844 220.957031 117.292969 221.085938 C 117.679688 221.738281 118.722656 222.730469 120.023438 223.96875 L 120.171875 224.113281 C 121.332031 225.21875 122.671875 226.503906 123.699219 227.652344 C 124.828125 228.921875 125.609375 230.097656 125.496094 230.898438 C 125.476562 231.054688 125.421875 231.203125 125.34375 231.335938 C 125.085938 231.765625 124.570312 231.992188 123.875 231.988281 C 123.339844 231.984375 122.660156 231.851562 121.890625 231.566406 C 120.566406 231.078125 118.910156 230.136719 117.167969 228.671875 C 115.40625 227.191406 113.554688 225.164062 111.90625 223.105469 C 109.941406 220.644531 108.261719 218.132812 107.390625 216.445312 C 106.835938 215.375 106.582031 214.585938 106.554688 214.03125 C 106.535156 213.582031 106.648438 213.234375 106.871094 212.980469 C 107.105469 212.710938 107.429688 212.578125 107.816406 212.558594 C 108.246094 212.535156 108.773438 212.671875 109.335938 212.910156 C 110.0625 213.214844 110.859375 213.6875 111.753906 214.222656 C 112.917969 214.917969 114.265625 215.722656 115.816406 216.351562 C 117.140625 216.894531 118.617188 217.304688 120.300781 217.480469 C 121.996094 217.65625 123.914062 217.597656 126.113281 217.199219 C 128.308594 216.800781 130.78125 216.058594 133.046875 215.1875 C 135.367188 214.296875 137.464844 213.261719 138.820312 212.3125 C 139.660156 211.726562 140.183594 211.191406 140.382812 210.769531 C 140.4375 210.648438 140.460938 210.558594 140.441406 210.503906 C 140.429688 210.460938 140.371094 210.410156 140.273438 210.363281 C 139.921875 210.1875 139.285156 210.117188 138.347656 210.183594 C 136.523438 210.320312 133.714844 211.007812 130.734375 211.734375 C 128.1875 212.355469 125.515625 213.003906 123.175781 213.386719 C 120.589844 213.808594 118.417969 213.894531 116.664062 213.835938 C 114.902344 213.777344 113.566406 213.570312 112.660156 213.402344 C 111.640625 213.214844 111.074219 213.042969 110.785156 212.753906 C 110.28125 212.25 110.441406 211.800781 110.921875 211.136719 C 111.277344 210.65625 111.875 209.960938 112.6875 209.378906 C 113.273438 208.960938 113.96875 208.597656 114.769531 208.402344 C 115.769531 208.15625 116.878906 208.191406 117.972656 208.21875 C 118.859375 208.246094 119.734375 208.269531 120.464844 208.136719 C 121.003906 208.039062 121.507812 207.84375 122.078125 207.621094 C 123.238281 207.175781 124.660156 206.625 127.242188 206.441406 C 129.589844 206.269531 132.910156 206.410156 136.054688 206.539062 C 138.085938 206.621094 140.046875 206.703125 141.597656 206.695312 C 143.527344 206.6875 144.847656 206.546875 145.71875 206.28125 C 146.433594 206.066406 146.792969 205.785156 146.929688 205.445312 C 147.078125 205.078125 147.011719 204.601562 146.714844 204.125 C 146.40625 203.628906 145.859375 203.140625 145.0625 202.746094 C 144.152344 202.300781 142.917969 201.976562 141.480469 201.730469 C 140.019531 201.480469 138.347656 201.308594 136.601562 201.160156 C 134.84375 201.015625 133.019531 200.894531 131.304688 200.898438 C 129.601562 200.902344 127.972656 201.019531 126.570312 201.351562 C 125.085938 201.699219 123.828125 202.292969 122.769531 202.796875 C 121.773438 203.269531 120.933594 203.667969 120.144531 203.765625 C 118.941406 203.914062 118.078125 203.402344 117.066406 202.5625 C 116.570312 202.632812 116.050781 202.65625 115.542969 202.613281 C 114.246094 202.5 113.0625 201.960938 112.058594 201.503906 L 111.492188 201.246094 C 111.46875 201.523438 111.394531 201.796875 111.261719 202.074219 C 111.007812 202.597656 110.539062 203.105469 109.792969 203.648438 C 109.382812 203.945312 108.921875 204.234375 108.433594 204.539062 C 107.269531 205.261719 105.953125 206.085938 105.390625 206.945312 C 104.921875 207.664062 104.9375 208.519531 104.945312 209.054688 C 104.957031 209.703125 104.96875 210.132812 104.371094 210.28125 C 103.957031 210.386719 103.363281 209.949219 102.585938 208.914062 C 102.003906 208.140625 101.191406 206.949219 100.144531 205.308594 Z M 104.023438 209.039062 C 104.035156 209.050781 104.046875 209.054688 104.0625 209.050781 C 104.25 209.003906 104.164062 209.015625 104.023438 209.039062 Z M 109.375 199.003906 C 109.125 198.53125 108.875 198.03125 108.691406 197.492188 C 108.484375 196.898438 108.363281 196.261719 108.300781 195.640625 L 108.289062 195.472656 C 108.152344 195.90625 108.058594 196.339844 108.039062 196.714844 C 108.011719 197.273438 108.160156 197.730469 108.394531 198.089844 C 108.644531 198.46875 108.984375 198.757812 109.320312 198.972656 Z M 117.441406 201.214844 C 118.140625 201.0625 118.75 200.832031 119.132812 200.628906 L 119.195312 200.597656 C 119.09375 200.527344 118.992188 200.445312 118.90625 200.328125 C 118.589844 199.910156 118.570312 199.453125 119.289062 198.921875 C 119.671875 198.636719 120.410156 198.257812 121.203125 197.9375 C 121.894531 197.660156 122.644531 197.421875 123.265625 197.320312 C 124.675781 197.085938 125.417969 197.527344 125.898438 197.8125 L 125.941406 197.839844 C 126.066406 197.910156 126.148438 197.957031 126.238281 197.960938 C 126.40625 197.972656 126.679688 197.925781 127.171875 197.804688 C 127.707031 197.675781 128.464844 197.457031 129.203125 197.128906 C 129.90625 196.8125 130.597656 196.390625 131.046875 195.839844 C 131.460938 195.332031 131.6875 194.6875 131.753906 194.03125 C 131.832031 193.292969 131.710938 192.539062 131.4375 191.933594 C 131.1875 191.378906 130.804688 190.949219 130.308594 190.625 C 129.789062 190.28125 129.136719 190.046875 128.378906 189.894531 C 127.535156 189.730469 126.589844 189.671875 125.746094 189.78125 C 125.070312 189.867188 124.464844 190.058594 124.0625 190.386719 C 123.691406 190.6875 123.445312 191.164062 123.1875 191.648438 C 122.769531 192.449219 122.332031 193.277344 121.324219 193.824219 C 120.097656 194.492188 118.140625 194.613281 116.253906 194.726562 C 115.625 194.765625 115.003906 194.800781 114.453125 194.855469 C 113.394531 194.960938 112.503906 195.128906 111.953125 195.398438 C 111.660156 195.539062 111.515625 195.703125 111.597656 195.898438 C 111.902344 196.648438 113.4375 197.890625 114.902344 199.074219 C 115.367188 199.445312 115.824219 199.816406 116.226562 200.160156 C 116.5625 200.445312 116.828125 200.675781 117.074219 200.890625 Z M 179.945312 168.582031 C 179.800781 168.546875 179.882812 168.625 180 168.765625 C 179.992188 168.652344 179.976562 168.59375 179.945312 168.582031 Z M 179.945312 168.582031 " fill-opacity="1" fill-rule="nonzero"/></g><g clip-path="url(#fee4437713)"><path fill="#000000" d="M 183.476562 226.128906 C 172.203125 248.5 160.925781 270.871094 154.53125 280.292969 C 151.140625 285.289062 148.914062 286.777344 147.484375 286.210938 C 146.027344 285.636719 145.585938 283.050781 145.640625 279.890625 C 145.648438 279.375 145.667969 278.839844 145.699219 278.296875 L 145.296875 278.921875 C 144.4375 280.203125 143.597656 281.140625 142.859375 281.632812 C 141.957031 282.238281 141.175781 282.246094 140.433594 281.746094 C 139.824219 281.332031 139.292969 280.542969 138.75 279.4375 C 138.238281 278.398438 137.707031 277.066406 137.144531 275.480469 C 136.582031 273.910156 135.980469 272.066406 135.332031 270.003906 L 134.1875 266.335938 C 133.289062 263.445312 132.351562 260.425781 131.480469 257.847656 L 131.398438 257.898438 C 131.15625 258.042969 130.898438 258.191406 130.628906 258.339844 C 129.375 259.023438 127.859375 259.710938 126.183594 260.46875 C 121.90625 262.402344 116.550781 264.824219 112.355469 268.632812 C 106.523438 273.929688 102.8125 282.015625 99.101562 290.097656 L 97.945312 289.566406 C 101.714844 281.363281 105.480469 273.160156 111.5 267.691406 C 115.84375 263.746094 121.300781 261.277344 125.660156 259.308594 C 127.328125 258.550781 128.835938 257.871094 130.019531 257.226562 C 130.273438 257.085938 130.515625 256.949219 130.746094 256.808594 L 131.054688 256.621094 L 130.558594 255.230469 C 129.472656 252.1875 128.714844 250.074219 129.546875 249.152344 C 129.628906 249.058594 129.726562 248.976562 129.832031 248.914062 C 130.335938 248.613281 131.074219 248.648438 131.847656 248.929688 C 132.515625 249.171875 133.246094 249.609375 133.855469 250.160156 C 134.230469 250.503906 134.5625 250.890625 134.8125 251.304688 L 134.894531 251.449219 C 135.410156 252.394531 135.503906 253.460938 134.921875 254.613281 C 134.515625 255.417969 133.765625 256.261719 132.570312 257.128906 C 133.488281 259.816406 134.464844 262.960938 135.398438 265.964844 L 136.539062 269.625 C 137.183594 271.660156 137.777344 273.484375 138.339844 275.054688 C 138.894531 276.613281 139.40625 277.90625 139.886719 278.882812 C 140.332031 279.792969 140.738281 280.417969 141.144531 280.691406 C 141.417969 280.875 141.738281 280.847656 142.152344 280.574219 C 142.753906 280.175781 143.472656 279.355469 144.238281 278.21875 C 144.808594 277.371094 145.394531 276.351562 145.96875 275.195312 C 146.121094 273.878906 146.3125 272.546875 146.53125 271.25 C 147.136719 267.667969 147.933594 264.34375 148.570312 262.453125 C 148.957031 261.304688 149.3125 260.625 149.613281 260.320312 C 149.933594 259.996094 150.273438 259.929688 150.609375 260.078125 C 150.875 260.195312 151.058594 260.4375 151.15625 260.789062 C 151.308594 261.316406 151.316406 262.300781 151.152344 263.515625 C 150.953125 264.96875 150.5 266.804688 149.90625 268.707031 C 149.300781 270.640625 148.542969 272.65625 147.738281 274.429688 C 147.5625 274.820312 147.386719 275.195312 147.207031 275.5625 C 147.035156 277.078125 146.925781 278.558594 146.90625 279.910156 C 146.859375 282.574219 147.101562 284.699219 147.941406 285.03125 C 148.8125 285.371094 150.503906 283.964844 153.480469 279.582031 C 159.816406 270.246094 171.082031 247.898438 182.339844 225.558594 L 183.472656 226.128906 Z M 149.777344 262.855469 C 149.214844 264.53125 148.515625 267.382812 147.945312 270.542969 C 148.214844 269.804688 148.464844 269.058594 148.695312 268.328125 C 149.273438 266.480469 149.707031 264.722656 149.898438 263.347656 C 149.957031 262.921875 149.992188 262.542969 150.003906 262.214844 Z M 131.757812 254.800781 L 132.136719 255.871094 C 132.972656 255.222656 133.503906 254.609375 133.792969 254.035156 C 134.160156 253.3125 134.105469 252.648438 133.789062 252.066406 L 133.71875 251.945312 C 133.539062 251.644531 133.289062 251.355469 133.007812 251.101562 C 132.523438 250.660156 131.945312 250.316406 131.417969 250.125 C 130.992188 249.96875 130.644531 249.914062 130.492188 250 C 130.171875 250.359375 130.820312 252.179688 131.757812 254.800781 Z M 131.757812 254.800781 " fill-opacity="1" fill-rule="nonzero"/></g><g fill="#000000" fill-opacity="1"><g transform="translate(175.486236, 286.211488)"><g><path d="M 72.078125 -204.34375 L 72.078125 -45.84375 L 132.546875 -45.84375 L 132.546875 0 L 19.875 0 L 19.875 -204.34375 Z M 72.078125 -204.34375 "/></g></g></g><g fill="#ffffff" fill-opacity="1"><g transform="translate(197.454702, 282.600602)"><g><path d="M 4.90625 -20.390625 C 4.082031 -20.390625 3.410156 -20.640625 2.890625 -21.140625 C 2.367188 -21.640625 2.109375 -22.285156 2.109375 -23.078125 C 2.109375 -23.859375 2.367188 -24.5 2.890625 -25 C 3.410156 -25.5 4.082031 -25.75 4.90625 -25.75 C 5.457031 -25.75 5.945312 -25.632812 6.375 -25.40625 C 6.800781 -25.175781 7.132812 -24.859375 7.375 -24.453125 C 7.613281 -24.054688 7.734375 -23.597656 7.734375 -23.078125 C 7.734375 -22.566406 7.613281 -22.101562 7.375 -21.6875 C 7.132812 -21.28125 6.800781 -20.960938 6.375 -20.734375 C 5.945312 -20.503906 5.457031 -20.390625 4.90625 -20.390625 Z M 2.625 0 L 2.625 -18.203125 L 7.203125 -18.203125 L 7.203125 0 Z M 2.625 0 "/></g></g></g><g fill="#ffffff" fill-opacity="1"><g transform="translate(207.261622, 282.600602)"><g><path d="M 2.625 0 L 2.625 -25.53125 L 7.203125 -25.53125 L 7.203125 -11.359375 L 7.640625 -11.359375 L 12.90625 -18.203125 L 17.546875 -18.203125 L 17.546875 -17.828125 L 11.359375 -9.84375 L 18.25 -0.40625 L 18.25 0 L 13.421875 0 L 7.640625 -7.671875 L 7.203125 -7.671875 L 7.203125 0 Z M 2.625 0 "/></g></g></g><g fill="#ffffff" fill-opacity="1"><g transform="translate(225.538155, 282.600602)"><g><path d="M 2.625 0 L 2.625 -25.53125 L 7.203125 -25.53125 L 7.203125 -15.828125 L 7.546875 -15.765625 C 8.148438 -16.660156 8.890625 -17.347656 9.765625 -17.828125 C 10.648438 -18.316406 11.710938 -18.5625 12.953125 -18.5625 C 16.972656 -18.5625 18.984375 -16.28125 18.984375 -11.71875 L 18.984375 0 L 14.40625 0 L 14.40625 -11.140625 C 14.40625 -12.390625 14.15625 -13.289062 13.65625 -13.84375 C 13.164062 -14.40625 12.398438 -14.6875 11.359375 -14.6875 C 10.078125 -14.6875 9.0625 -14.257812 8.3125 -13.40625 C 7.570312 -12.5625 7.203125 -11.234375 7.203125 -9.421875 L 7.203125 0 Z M 2.625 0 "/></g></g></g><g fill="#ffffff" fill-opacity="1"><g transform="translate(246.869032, 282.600602)"><g><path d="M 10.578125 0.34375 C 8.796875 0.34375 7.226562 -0.0195312 5.875 -0.75 C 4.53125 -1.476562 3.488281 -2.550781 2.75 -3.96875 C 2.007812 -5.382812 1.640625 -7.09375 1.640625 -9.09375 C 1.640625 -11.101562 2.007812 -12.816406 2.75 -14.234375 C 3.488281 -15.648438 4.53125 -16.722656 5.875 -17.453125 C 7.226562 -18.191406 8.796875 -18.5625 10.578125 -18.5625 C 12.359375 -18.5625 13.921875 -18.191406 15.265625 -17.453125 C 16.617188 -16.722656 17.671875 -15.648438 18.421875 -14.234375 C 19.171875 -12.816406 19.546875 -11.101562 19.546875 -9.09375 C 19.546875 -7.09375 19.171875 -5.382812 18.421875 -3.96875 C 17.671875 -2.550781 16.617188 -1.476562 15.265625 -0.75 C 13.921875 -0.0195312 12.359375 0.34375 10.578125 0.34375 Z M 10.578125 -3.53125 C 13.410156 -3.53125 14.828125 -5.382812 14.828125 -9.09375 C 14.828125 -11.019531 14.460938 -12.429688 13.734375 -13.328125 C 13.003906 -14.222656 11.953125 -14.671875 10.578125 -14.671875 C 7.753906 -14.671875 6.34375 -12.8125 6.34375 -9.09375 C 6.34375 -5.382812 7.753906 -3.53125 10.578125 -3.53125 Z M 10.578125 -3.53125 "/></g></g></g><g fill="#ffffff" fill-opacity="1"><g transform="translate(267.25873, 282.600602)"><g><path d="M 4.65625 0.15625 C 4.070312 0.15625 3.554688 0.0351562 3.109375 -0.203125 C 2.660156 -0.441406 2.316406 -0.769531 2.078125 -1.1875 C 1.847656 -1.601562 1.734375 -2.078125 1.734375 -2.609375 C 1.734375 -3.140625 1.847656 -3.613281 2.078125 -4.03125 C 2.316406 -4.445312 2.660156 -4.773438 3.109375 -5.015625 C 3.554688 -5.253906 4.070312 -5.375 4.65625 -5.375 C 5.25 -5.375 5.769531 -5.253906 6.21875 -5.015625 C 6.664062 -4.785156 7.003906 -4.460938 7.234375 -4.046875 C 7.472656 -3.628906 7.59375 -3.15625 7.59375 -2.625 C 7.59375 -1.820312 7.328125 -1.15625 6.796875 -0.625 C 6.265625 -0.101562 5.550781 0.15625 4.65625 0.15625 Z M 4.65625 0.15625 "/></g></g></g><g fill="#ffffff" fill-opacity="1"><g transform="translate(276.586861, 282.600602)"><g><path d="M 4.90625 -20.390625 C 4.082031 -20.390625 3.410156 -20.640625 2.890625 -21.140625 C 2.367188 -21.640625 2.109375 -22.285156 2.109375 -23.078125 C 2.109375 -23.859375 2.367188 -24.5 2.890625 -25 C 3.410156 -25.5 4.082031 -25.75 4.90625 -25.75 C 5.457031 -25.75 5.945312 -25.632812 6.375 -25.40625 C 6.800781 -25.175781 7.132812 -24.859375 7.375 -24.453125 C 7.613281 -24.054688 7.734375 -23.597656 7.734375 -23.078125 C 7.734375 -22.566406 7.613281 -22.101562 7.375 -21.6875 C 7.132812 -21.28125 6.800781 -20.960938 6.375 -20.734375 C 5.945312 -20.503906 5.457031 -20.390625 4.90625 -20.390625 Z M 2.625 0 L 2.625 -18.203125 L 7.203125 -18.203125 L 7.203125 0 Z M 2.625 0 "/></g></g></g><g fill="#ffffff" fill-opacity="1"><g transform="translate(286.393782, 282.600602)"><g><path d="M 2.625 0 L 2.625 -18.203125 L 7.015625 -18.203125 L 7.015625 -15.53125 L 7.359375 -15.453125 C 8.492188 -17.523438 10.332031 -18.5625 12.875 -18.5625 C 14.976562 -18.5625 16.519531 -17.988281 17.5 -16.84375 C 18.488281 -15.695312 18.984375 -14.03125 18.984375 -11.84375 L 18.984375 0 L 14.40625 0 L 14.40625 -11.28125 C 14.40625 -12.488281 14.160156 -13.359375 13.671875 -13.890625 C 13.191406 -14.421875 12.421875 -14.6875 11.359375 -14.6875 C 10.046875 -14.6875 9.023438 -14.265625 8.296875 -13.421875 C 7.566406 -12.578125 7.203125 -11.242188 7.203125 -9.421875 L 7.203125 0 Z M 2.625 0 "/></g></g></g></svg>